<svg id="svg" version="1.1" xmlns="http://www.w3.org/2000/svg" xmlns:xlink="http://www.w3.org/1999/xlink" width="400" height="96.62278191184888" viewBox="0, 0, 400,96.62278191184888"><g id="svgg"><path id="path0" d="M341.083 9.794 C 340.992 9.862,340.663 10.404,340.353 11.000 C 338.175 15.186,337.723 15.817,337.242 15.345 C 335.999 14.125,333.704 13.953,334.304 15.125 C 334.387 15.285,334.504 15.754,334.566 16.167 C 334.627 16.579,334.754 17.292,334.847 17.750 C 335.285 19.914,335.356 20.294,335.444 20.917 C 335.495 21.283,335.594 21.658,335.664 21.750 C 335.862 22.011,336.044 24.044,335.864 23.976 C 335.583 23.870,334.333 22.672,334.333 22.509 C 334.333 22.421,334.240 22.290,334.125 22.217 C 334.010 22.143,333.404 21.502,332.777 20.792 C 331.636 19.499,331.081 19.204,330.899 19.792 C 330.850 19.952,330.739 20.214,330.655 20.373 C 330.570 20.532,330.500 20.779,330.500 20.923 C 330.500 21.417,329.993 22.201,329.781 22.034 C 329.672 21.949,329.283 21.832,328.917 21.776 C 328.550 21.720,327.912 21.593,327.500 21.495 C 325.081 20.918,324.427 20.968,324.570 21.718 C 324.786 22.850,325.060 23.948,325.160 24.083 C 325.228 24.175,325.380 24.738,325.499 25.333 C 325.617 25.929,325.778 26.488,325.857 26.575 C 326.195 26.949,325.967 27.291,325.125 27.679 C 323.437 28.457,323.444 28.686,325.204 30.046 C 325.468 30.250,325.871 30.585,326.099 30.790 C 326.327 30.995,327.054 31.592,327.715 32.116 C 328.376 32.641,328.992 33.152,329.083 33.253 C 329.284 33.473,330.449 34.333,330.547 34.333 C 330.832 34.333,332.706 36.373,332.524 36.485 C 332.277 36.638,331.983 37.631,331.914 38.545 C 331.863 39.223,332.209 39.587,332.671 39.341 C 332.806 39.269,333.693 39.159,334.641 39.096 C 335.590 39.034,336.490 38.917,336.641 38.837 C 337.098 38.594,339.638 38.333,341.530 38.333 C 343.437 38.333,345.980 38.606,346.667 38.885 C 346.804 38.940,347.816 39.058,348.915 39.147 C 351.526 39.357,351.653 39.259,351.000 37.540 C 350.488 36.193,350.535 36.008,351.600 35.166 C 353.115 33.969,353.674 33.514,354.254 33.005 C 354.622 32.681,355.137 32.267,355.398 32.083 C 355.879 31.745,356.976 30.823,357.530 30.292 C 357.697 30.131,357.900 30.000,357.981 30.000 C 358.062 30.000,358.405 29.693,358.743 29.319 C 359.411 28.580,359.322 28.169,358.436 27.902 C 357.616 27.654,357.005 27.156,357.165 26.865 C 357.250 26.710,357.399 26.208,357.496 25.750 C 357.594 25.292,357.708 24.804,357.751 24.667 C 358.976 20.736,358.974 20.734,355.500 21.516 C 355.087 21.609,354.488 21.727,354.167 21.779 C 353.846 21.831,353.508 21.933,353.416 22.006 C 353.079 22.274,352.715 21.738,352.567 20.754 C 352.436 19.887,352.359 19.737,351.973 19.602 C 351.463 19.423,351.587 19.323,349.825 21.331 C 348.483 22.860,347.383 24.000,347.250 24.000 C 347.102 24.000,347.162 22.671,347.323 22.373 C 347.410 22.214,347.558 21.418,347.653 20.604 C 347.749 19.791,347.895 19.041,347.978 18.938 C 348.061 18.835,348.210 18.188,348.308 17.500 C 348.541 15.880,348.579 15.699,348.717 15.560 C 348.900 15.377,348.852 14.667,348.657 14.667 C 348.560 14.667,348.527 14.591,348.584 14.499 C 348.759 14.215,348.171 14.110,347.698 14.341 C 347.451 14.460,347.194 14.545,347.125 14.529 C 347.056 14.513,347.000 14.560,347.000 14.633 C 347.000 14.706,346.738 14.861,346.417 14.977 C 346.096 15.093,345.833 15.258,345.833 15.344 C 345.833 15.812,345.142 15.437,344.814 14.792 C 344.617 14.402,344.409 14.046,344.353 14.000 C 344.296 13.954,343.962 13.354,343.610 12.667 C 342.085 9.686,341.750 9.305,341.083 9.794 M347.311 24.390 C 347.414 24.513,347.456 24.655,347.406 24.706 C 347.240 24.872,346.667 24.632,346.667 24.397 C 346.667 24.103,347.069 24.098,347.311 24.390 M35.955 44.857 C 35.822 45.073,34.536 47.462,33.097 50.167 C 29.764 56.433,29.999 56.235,27.319 55.030 C 26.731 54.765,25.912 54.396,25.500 54.210 C 22.888 53.029,22.333 52.934,22.582 53.710 C 22.648 53.915,22.782 54.571,22.881 55.167 C 22.979 55.762,23.111 56.288,23.175 56.333 C 23.238 56.379,23.411 57.242,23.560 58.250 C 24.060 61.648,24.335 63.248,24.491 63.667 C 24.577 63.896,24.693 64.421,24.749 64.833 C 24.806 65.246,24.916 65.733,24.995 65.917 C 25.182 66.355,25.538 69.137,25.429 69.313 C 25.383 69.388,25.528 69.548,25.751 69.667 C 26.601 70.122,26.695 71.820,25.913 72.602 C 25.218 73.297,24.255 72.991,23.110 71.713 C 22.800 71.367,21.711 70.153,20.690 69.016 C 19.103 67.250,18.292 65.983,19.042 66.441 C 19.318 66.610,18.528 65.665,17.314 64.375 C 16.079 63.063,15.232 63.046,15.721 64.343 C 16.203 65.620,14.673 69.000,13.612 69.000 C 12.602 69.000,10.452 68.435,10.377 68.149 C 10.332 67.977,10.079 67.809,9.775 67.750 C 9.486 67.693,9.100 67.583,8.917 67.505 C 8.502 67.327,4.326 66.500,3.844 66.500 C 3.230 66.500,3.373 67.922,4.169 69.750 C 4.249 69.933,4.359 70.346,4.414 70.667 C 4.692 72.290,5.234 73.833,5.525 73.833 C 5.844 73.833,6.041 74.365,6.592 76.711 C 7.048 78.656,7.016 78.704,4.365 80.009 L 2.147 81.102 3.115 81.847 C 3.648 82.257,4.421 82.815,4.833 83.087 C 5.246 83.360,5.621 83.621,5.667 83.668 C 5.881 83.887,7.179 84.667,7.330 84.667 C 7.423 84.667,7.500 84.733,7.500 84.813 C 7.500 84.894,7.744 85.058,8.042 85.179 C 8.340 85.299,8.621 85.440,8.667 85.491 C 9.008 85.871,14.979 88.733,15.803 88.912 C 16.107 88.978,16.557 89.136,16.803 89.265 C 17.049 89.393,17.346 89.498,17.464 89.499 C 17.582 89.500,17.845 89.604,18.048 89.731 C 18.251 89.859,18.717 90.015,19.083 90.080 C 19.450 90.144,19.831 90.263,19.930 90.345 C 20.028 90.426,20.628 90.612,21.263 90.758 C 21.897 90.903,22.904 91.134,23.500 91.270 C 24.096 91.406,25.408 91.645,26.417 91.802 C 27.425 91.959,28.329 92.138,28.425 92.200 C 29.130 92.651,38.490 92.745,41.250 92.328 C 45.027 91.758,47.537 91.263,48.039 90.990 C 48.199 90.904,48.462 90.833,48.624 90.833 C 49.053 90.833,51.638 89.931,52.900 89.341 C 53.498 89.062,54.069 88.833,54.169 88.833 C 54.349 88.833,55.167 88.402,56.333 87.691 C 56.654 87.496,57.029 87.288,57.167 87.229 C 60.214 85.921,67.541 78.667,65.816 78.667 C 65.567 78.667,65.656 77.319,65.987 76.083 C 66.159 75.442,66.563 73.979,66.885 72.833 C 67.918 69.155,68.372 67.316,68.271 67.215 C 68.217 67.161,66.352 67.502,64.128 67.972 C 57.386 69.397,57.896 69.545,56.844 65.856 C 56.572 64.906,56.322 64.099,56.286 64.064 C 56.251 64.028,55.404 64.918,54.404 66.041 C 48.195 73.018,47.972 73.225,47.007 72.919 C 45.864 72.556,45.794 71.711,46.573 67.700 C 47.191 64.522,48.564 57.239,48.947 55.105 C 49.248 53.435,49.415 53.456,46.727 54.836 C 42.767 56.870,43.049 57.049,39.350 50.146 C 36.060 44.003,36.275 44.339,35.955 44.857 M328.597 82.037 C 328.022 82.245,327.167 83.074,327.167 83.422 C 327.167 83.557,327.096 83.667,327.010 83.667 C 326.924 83.667,326.830 83.948,326.802 84.292 L 326.750 84.917 325.792 84.967 L 324.833 85.017 324.833 86.258 L 324.833 87.500 325.750 87.500 L 326.667 87.500 326.667 90.333 L 326.667 93.167 328.250 93.167 L 329.833 93.167 329.833 90.333 L 329.833 87.500 331.083 87.500 L 332.333 87.500 332.333 86.257 L 332.333 85.014 331.053 84.965 C 329.799 84.918,329.779 84.910,330.086 84.603 C 330.356 84.335,330.572 84.303,331.613 84.382 L 332.825 84.474 332.934 83.654 C 332.994 83.202,333.108 82.833,333.188 82.833 C 333.712 82.833,333.283 82.035,332.708 81.940 C 331.735 81.779,329.137 81.840,328.597 82.037 M385.667 83.556 L 385.667 85.112 384.342 85.035 C 382.869 84.950,381.768 85.418,381.300 86.329 C 381.181 86.561,381.029 86.791,380.963 86.841 C 380.439 87.233,380.499 90.542,381.051 91.656 C 381.770 93.107,382.394 93.418,384.287 93.267 C 385.000 93.211,386.277 93.171,387.125 93.179 L 388.667 93.193 388.667 87.597 L 388.667 82.000 387.167 82.000 L 385.667 82.000 385.667 83.556 M288.940 82.869 C 288.884 83.078,288.836 83.475,288.833 83.750 C 288.823 84.907,288.728 85.000,287.564 85.000 L 286.500 85.000 286.500 85.986 C 286.500 87.446,286.542 87.500,287.684 87.500 L 288.667 87.500 288.667 89.339 C 288.667 91.410,288.835 91.977,289.679 92.750 L 290.225 93.250 292.599 93.250 C 295.392 93.250,295.178 93.372,294.934 91.917 L 294.739 90.750 293.638 90.807 C 291.941 90.896,291.833 90.787,291.833 88.994 L 291.833 87.500 293.333 87.500 L 294.833 87.500 294.833 86.250 L 294.833 85.000 293.341 85.000 L 291.848 85.000 291.799 83.792 L 291.750 82.583 290.396 82.535 C 289.107 82.490,289.037 82.506,288.940 82.869 M346.292 82.691 C 345.948 82.788,345.667 82.934,345.667 83.017 C 345.667 83.099,345.577 83.167,345.466 83.167 C 345.190 83.167,343.833 84.628,343.833 84.925 C 343.833 85.058,343.765 85.167,343.680 85.167 C 343.447 85.167,343.167 86.713,343.167 88.000 C 343.167 89.287,343.447 90.833,343.680 90.833 C 343.765 90.833,343.833 90.946,343.833 91.083 C 343.833 91.307,344.664 92.219,345.402 92.806 C 346.557 93.723,350.198 93.502,351.249 92.451 C 351.988 91.712,351.984 91.668,351.098 90.756 C 350.276 89.911,350.055 89.852,349.500 90.333 C 348.932 90.826,347.765 90.791,347.284 90.266 C 346.452 89.358,346.425 89.289,346.422 88.009 C 346.415 85.658,348.264 84.240,349.597 85.573 C 350.005 85.981,351.136 85.190,351.428 84.292 C 351.480 84.131,351.592 84.000,351.678 84.000 C 352.023 84.000,351.789 83.720,350.985 83.172 C 350.049 82.534,347.709 82.294,346.292 82.691 M258.833 87.917 L 258.833 93.167 260.417 93.167 L 262.000 93.167 262.000 91.604 L 262.000 90.041 263.458 89.970 C 265.966 89.848,267.240 88.567,267.232 86.176 C 267.222 83.417,266.059 82.667,261.794 82.667 L 258.833 82.667 258.833 87.917 M270.125 85.119 C 269.873 85.158,269.667 85.247,269.667 85.318 C 269.667 85.389,269.367 85.537,269.000 85.647 C 268.633 85.757,268.333 85.908,268.333 85.982 C 268.333 86.277,268.707 87.167,268.832 87.167 C 268.904 87.167,269.012 87.357,269.070 87.590 C 269.210 88.146,269.571 88.268,270.083 87.932 C 270.832 87.441,272.833 87.372,272.833 87.837 C 272.833 87.926,272.544 88.000,272.189 88.000 C 271.286 88.000,269.761 88.308,269.694 88.503 C 269.664 88.593,269.542 88.667,269.423 88.667 C 268.020 88.667,267.612 91.581,268.849 92.764 C 269.490 93.378,272.215 93.502,273.049 92.954 C 273.435 92.702,273.500 92.696,273.500 92.913 C 273.500 93.119,273.750 93.167,274.833 93.167 L 276.167 93.167 276.163 90.542 C 276.155 85.433,274.986 84.383,270.125 85.119 M278.333 89.076 L 278.333 93.167 279.917 93.167 L 281.500 93.167 281.500 91.089 C 281.500 88.834,281.481 88.883,282.728 87.875 C 283.045 87.619,284.234 87.602,284.692 87.847 C 285.118 88.075,285.174 88.012,285.286 87.180 C 285.336 86.806,285.434 86.500,285.504 86.500 C 285.573 86.500,285.661 86.232,285.700 85.905 C 285.793 85.102,285.467 84.953,283.768 85.025 C 282.425 85.083,282.317 85.123,281.488 85.875 C 281.058 86.266,281.029 86.252,280.969 85.625 L 280.917 85.083 279.625 85.035 L 278.333 84.986 278.333 89.076 M295.667 85.167 C 295.667 85.258,295.736 85.333,295.820 85.333 C 295.904 85.333,296.026 85.577,296.089 85.875 C 296.153 86.173,296.306 86.604,296.429 86.833 C 296.866 87.649,297.500 89.180,297.500 89.422 C 297.500 89.556,297.567 89.667,297.649 89.667 C 297.730 89.667,297.848 89.870,297.911 90.119 C 297.973 90.368,298.169 90.889,298.346 91.277 C 298.522 91.664,298.667 92.061,298.667 92.158 C 298.667 92.254,298.742 92.333,298.833 92.333 C 299.101 92.333,299.025 92.967,298.713 93.331 C 298.501 93.579,298.221 93.667,297.640 93.667 L 296.854 93.667 296.739 94.458 C 296.676 94.894,296.558 95.334,296.476 95.437 C 295.897 96.168,299.225 96.536,300.054 95.833 C 301.132 94.921,301.636 94.249,301.767 93.551 C 301.824 93.248,301.931 93.000,302.005 93.000 C 302.079 93.000,302.192 92.756,302.256 92.458 C 302.319 92.160,302.513 91.602,302.686 91.217 C 302.858 90.833,303.000 90.406,303.000 90.269 C 303.000 90.132,303.068 89.978,303.151 89.926 C 303.235 89.875,303.399 89.458,303.516 89.000 C 303.634 88.541,303.776 88.167,303.833 88.167 C 303.890 88.167,304.037 87.773,304.159 87.292 C 304.281 86.810,304.448 86.373,304.530 86.320 C 304.612 86.267,304.723 85.948,304.778 85.612 L 304.877 85.000 303.362 85.000 L 301.846 85.000 301.640 86.000 C 301.526 86.550,301.380 87.000,301.315 87.000 C 301.250 87.000,301.103 87.525,300.988 88.167 C 300.792 89.265,300.333 89.849,300.333 89.000 C 300.333 88.817,300.270 88.667,300.193 88.667 C 300.116 88.667,299.957 88.239,299.840 87.717 C 299.724 87.194,299.573 86.650,299.505 86.508 C 299.438 86.366,299.247 85.969,299.082 85.625 L 298.781 85.000 297.224 85.000 C 296.297 85.000,295.667 85.067,295.667 85.167 M317.375 85.110 C 317.169 85.154,317.000 85.260,317.000 85.345 C 317.000 85.430,316.906 85.501,316.792 85.502 C 316.190 85.507,315.003 87.248,315.001 88.127 C 315.000 88.426,314.906 88.830,314.792 89.024 C 314.625 89.306,314.625 89.392,314.792 89.452 C 314.906 89.494,315.000 89.786,315.000 90.103 C 315.000 92.083,316.621 93.331,319.197 93.332 C 321.005 93.334,321.603 93.051,322.733 91.661 C 323.617 90.574,323.520 87.547,322.569 86.521 C 322.348 86.282,322.167 86.035,322.167 85.971 C 322.167 85.908,322.017 85.808,321.834 85.750 C 321.652 85.692,321.376 85.518,321.222 85.364 C 320.941 85.083,318.320 84.910,317.375 85.110 M354.625 85.119 C 354.373 85.158,354.167 85.247,354.167 85.318 C 354.167 85.389,353.867 85.537,353.500 85.647 C 353.133 85.757,352.833 85.908,352.833 85.982 C 352.833 86.283,353.209 87.167,353.336 87.167 C 353.412 87.167,353.523 87.392,353.583 87.667 C 353.707 88.228,354.053 88.311,354.618 87.915 C 355.296 87.441,357.333 87.382,357.333 87.837 C 357.333 87.926,357.044 88.000,356.689 88.000 C 355.786 88.000,354.261 88.308,354.194 88.503 C 354.164 88.593,354.049 88.667,353.940 88.667 C 352.583 88.667,352.066 91.477,353.211 92.622 L 353.840 93.250 355.469 93.250 C 356.748 93.250,357.195 93.187,357.549 92.954 C 357.935 92.702,358.000 92.696,358.000 92.913 C 358.000 93.119,358.250 93.167,359.333 93.167 L 360.667 93.167 360.663 90.542 C 360.655 85.433,359.486 84.383,354.625 85.119 M362.167 89.083 L 362.167 93.167 363.750 93.167 L 365.333 93.167 365.333 90.643 C 365.333 87.935,365.411 87.685,366.258 87.672 C 366.928 87.662,367.000 87.946,367.000 90.617 L 367.000 93.167 368.583 93.167 L 370.167 93.167 370.167 90.000 C 370.167 88.000,370.105 86.833,370.000 86.833 C 369.908 86.833,369.833 86.676,369.833 86.483 C 369.833 86.291,369.571 85.871,369.250 85.550 L 368.667 84.967 367.196 85.025 C 366.073 85.070,365.657 85.152,365.434 85.375 C 365.050 85.759,364.833 85.744,364.833 85.333 C 364.833 85.028,364.722 85.000,363.500 85.000 L 362.167 85.000 362.167 89.083 M373.500 85.143 C 372.881 85.323,371.500 85.974,371.500 86.086 C 371.500 86.259,372.245 87.581,372.375 87.639 C 372.444 87.669,372.500 87.809,372.500 87.949 C 372.500 88.227,373.323 88.119,373.511 87.816 C 373.641 87.605,375.196 87.429,375.736 87.565 C 376.423 87.737,376.235 88.000,375.425 88.000 C 374.586 88.000,373.035 88.301,372.763 88.516 C 370.894 90.000,370.822 92.225,372.614 93.146 C 373.332 93.515,376.500 93.244,376.500 92.814 C 376.500 92.733,376.575 92.667,376.667 92.667 C 376.758 92.667,376.833 92.779,376.833 92.917 C 376.833 93.118,377.094 93.167,378.183 93.167 L 379.532 93.167 379.474 90.077 C 379.441 88.273,379.347 86.938,379.250 86.869 C 379.158 86.803,378.976 86.544,378.847 86.292 C 378.717 86.040,378.562 85.833,378.503 85.833 C 378.444 85.833,378.215 85.665,377.994 85.458 C 377.569 85.063,374.517 84.849,373.500 85.143 M392.333 85.111 C 392.196 85.158,391.847 85.302,391.558 85.432 C 391.269 85.561,390.960 85.667,390.870 85.667 C 390.355 85.667,390.306 86.796,390.805 87.163 C 390.870 87.211,391.018 87.464,391.133 87.725 C 391.345 88.209,392.071 88.257,392.350 87.806 C 392.539 87.500,394.379 87.441,394.750 87.730 C 395.066 87.976,395.043 87.990,394.319 87.995 C 393.344 88.001,391.667 88.335,391.667 88.523 C 391.667 88.602,391.568 88.667,391.448 88.667 C 391.143 88.667,390.333 89.544,390.333 89.874 C 390.333 90.024,390.258 90.193,390.167 90.250 C 390.075 90.307,390.000 90.607,390.000 90.917 C 390.000 91.227,390.075 91.527,390.167 91.583 C 390.258 91.640,390.333 91.818,390.333 91.979 C 390.333 93.114,393.733 93.818,395.049 92.954 C 395.435 92.702,395.500 92.696,395.500 92.913 C 395.500 93.120,395.759 93.167,396.917 93.167 L 398.333 93.167 398.333 90.417 C 398.333 88.904,398.268 87.667,398.188 87.667 C 398.108 87.667,397.997 87.381,397.941 87.032 C 397.842 86.412,396.949 85.443,396.196 85.137 C 395.873 85.006,392.705 84.985,392.333 85.111 M263.827 85.531 C 264.592 86.352,263.946 87.500,262.720 87.500 L 262.000 87.500 262.000 86.333 L 262.000 85.167 262.744 85.167 C 263.294 85.167,263.575 85.261,263.827 85.531 M319.724 87.748 C 320.744 88.767,320.022 91.084,318.782 90.773 C 318.222 90.632,317.956 89.221,318.269 88.051 C 318.415 87.509,319.301 87.325,319.724 87.748 M385.344 87.673 C 385.906 87.973,385.819 90.450,385.239 90.671 C 384.297 91.029,383.833 90.550,383.833 89.219 C 383.833 87.864,384.475 87.207,385.344 87.673 M273.000 90.244 C 273.000 90.581,272.470 90.833,271.761 90.833 C 271.069 90.833,270.931 90.417,271.542 90.172 C 272.158 89.924,273.000 89.966,273.000 90.244 M357.500 90.244 C 357.500 90.581,356.970 90.833,356.261 90.833 C 355.569 90.833,355.431 90.417,356.042 90.172 C 356.658 89.924,357.500 89.966,357.500 90.244 M376.333 90.254 C 376.333 90.553,375.682 90.833,374.989 90.833 C 374.394 90.833,374.318 90.396,374.875 90.172 C 375.504 89.919,376.333 89.966,376.333 90.254 M395.167 90.223 C 395.167 90.525,394.446 90.833,393.742 90.833 C 393.079 90.833,393.007 90.631,393.537 90.259 C 394.002 89.934,395.167 89.908,395.167 90.223 " stroke="none" fill="#fb0404" fill-rule="evenodd"></path><path id="path1" d="M346.667 24.397 C 346.667 24.632,347.240 24.872,347.406 24.706 C 347.542 24.569,347.161 24.167,346.896 24.167 C 346.770 24.167,346.667 24.270,346.667 24.397 M33.096 49.708 C 31.467 52.756,29.972 55.386,29.775 55.553 L 29.417 55.856 29.782 55.677 C 30.261 55.443,30.016 55.856,33.254 49.847 C 34.815 46.952,36.158 44.596,36.238 44.611 C 36.318 44.627,37.704 47.093,39.317 50.092 C 43.063 57.056,42.769 56.868,46.727 54.836 C 49.415 53.456,49.248 53.435,48.947 55.105 C 48.564 57.239,47.191 64.522,46.573 67.700 C 45.794 71.711,45.864 72.556,47.007 72.919 C 47.972 73.225,48.195 73.018,54.404 66.041 C 55.404 64.918,56.251 64.028,56.286 64.064 C 56.322 64.099,56.572 64.906,56.844 65.856 C 57.896 69.545,57.386 69.397,64.128 67.972 C 66.352 67.502,68.217 67.161,68.271 67.215 C 68.372 67.316,67.918 69.155,66.885 72.833 C 65.841 76.548,65.675 77.240,65.671 77.887 C 65.667 78.493,66.061 79.162,66.287 78.935 C 66.345 78.877,66.255 78.730,66.087 78.607 C 65.653 78.289,65.751 77.775,67.348 71.988 C 68.105 69.245,68.685 66.963,68.638 66.916 C 68.591 66.868,66.721 67.209,64.484 67.674 C 58.789 68.856,59.012 68.820,58.471 68.632 C 57.939 68.446,57.634 67.961,57.339 66.833 C 56.813 64.815,56.468 63.833,56.285 63.834 C 56.174 63.834,54.433 65.680,52.417 67.936 C 48.294 72.548,48.168 72.667,47.406 72.667 C 46.242 72.667,46.059 71.639,46.662 68.476 C 47.158 65.877,48.282 59.922,48.845 56.917 C 49.119 55.450,49.385 54.044,49.435 53.792 C 49.564 53.146,49.459 53.176,46.723 54.583 C 42.784 56.609,43.215 56.893,39.405 49.767 C 37.762 46.693,36.336 44.175,36.237 44.172 C 36.139 44.169,34.725 46.660,33.096 49.708 M15.689 64.552 C 15.639 65.221,14.777 67.937,14.522 68.227 C 13.972 68.856,11.881 68.804,10.606 68.132 C 10.369 68.007,10.312 68.021,10.369 68.192 C 10.445 68.424,12.511 68.956,13.446 68.984 C 14.546 69.017,16.080 66.155,15.784 64.621 C 15.731 64.350,15.706 64.332,15.689 64.552 M18.833 66.631 C 18.833 66.806,19.669 67.879,20.690 69.016 C 21.711 70.153,22.800 71.367,23.110 71.713 C 24.614 73.392,26.097 73.347,26.422 71.613 C 26.545 70.959,26.248 69.833,25.954 69.833 C 25.823 69.833,25.826 69.893,25.967 70.033 C 26.257 70.323,26.216 71.855,25.907 72.296 C 25.587 72.753,24.768 72.790,24.155 72.374 C 23.557 71.969,19.167 67.010,19.167 66.740 C 19.167 66.619,19.092 66.473,19.000 66.417 C 18.908 66.360,18.833 66.457,18.833 66.631 M5.370 73.947 C 5.528 73.989,5.723 74.261,5.803 74.553 C 6.973 78.815,7.073 78.481,4.212 79.860 C 3.041 80.424,2.158 80.909,2.250 80.937 C 2.342 80.965,3.354 80.522,4.500 79.952 C 7.000 78.710,7.045 78.640,6.592 76.711 C 6.000 74.192,5.857 73.831,5.452 73.853 C 5.177 73.867,5.156 73.891,5.370 73.947 " stroke="none" fill="#b77c7c" fill-rule="evenodd"></path><path id="path2" d="M34.583 46.667 C 34.441 46.942,34.362 47.167,34.408 47.167 C 34.454 47.167,34.608 46.942,34.750 46.667 C 34.892 46.392,34.971 46.167,34.925 46.167 C 34.879 46.167,34.726 46.392,34.583 46.667 M42.643 55.490 C 42.860 55.679,43.116 55.833,43.213 55.833 C 43.418 55.833,43.408 55.825,42.750 55.440 L 42.250 55.147 42.643 55.490 M55.924 63.822 C 55.857 63.929,55.922 63.956,56.091 63.890 C 56.246 63.831,56.438 63.887,56.530 64.017 C 56.665 64.211,56.681 64.208,56.624 64.000 C 56.542 63.698,56.074 63.579,55.924 63.822 M54.742 65.208 L 54.083 65.917 54.792 65.258 C 55.450 64.645,55.577 64.500,55.450 64.500 C 55.423 64.500,55.105 64.819,54.742 65.208 M53.324 66.792 L 52.750 67.417 53.375 66.842 C 53.719 66.526,54.000 66.245,54.000 66.217 C 54.000 66.090,53.859 66.210,53.324 66.792 M20.000 67.917 C 20.311 68.237,20.603 68.500,20.649 68.500 C 20.695 68.500,20.478 68.237,20.167 67.917 C 19.856 67.596,19.564 67.333,19.518 67.333 C 19.472 67.333,19.689 67.596,20.000 67.917 M51.906 68.375 L 51.417 68.917 51.958 68.427 C 52.463 67.971,52.577 67.833,52.448 67.833 C 52.419 67.833,52.175 68.077,51.906 68.375 M21.333 69.417 C 21.644 69.737,21.936 70.000,21.982 70.000 C 22.028 70.000,21.811 69.737,21.500 69.417 C 21.189 69.096,20.897 68.833,20.851 68.833 C 20.805 68.833,21.022 69.096,21.333 69.417 M50.573 69.875 L 50.083 70.417 50.625 69.927 C 51.130 69.471,51.243 69.333,51.115 69.333 C 51.086 69.333,50.842 69.577,50.573 69.875 M22.833 71.083 C 23.144 71.404,23.436 71.667,23.482 71.667 C 23.528 71.667,23.311 71.404,23.000 71.083 C 22.689 70.762,22.397 70.500,22.351 70.500 C 22.305 70.500,22.522 70.762,22.833 71.083 M48.833 71.750 C 48.428 72.162,48.135 72.500,48.181 72.500 C 48.226 72.500,48.595 72.162,49.000 71.750 C 49.405 71.337,49.699 71.000,49.653 71.000 C 49.607 71.000,49.238 71.337,48.833 71.750 " stroke="none" fill="#789c9c" fill-rule="evenodd"></path><path id="path3" d="M32.917 0.690 C 31.148 0.842,26.972 1.592,26.520 1.838 C 26.371 1.919,25.537 2.186,24.667 2.431 C 22.610 3.011,19.514 4.390,17.299 5.714 C 11.279 9.312,6.735 14.930,4.869 21.084 C 4.513 22.260,4.300 23.492,3.978 26.250 C 3.798 27.793,3.929 31.833,4.159 31.833 C 4.228 31.833,4.329 32.424,4.385 33.146 C 4.441 33.868,4.596 34.750,4.729 35.105 C 4.862 35.460,5.021 35.972,5.081 36.244 C 5.187 36.718,5.494 37.468,6.181 38.928 C 6.356 39.300,6.500 39.659,6.500 39.725 C 6.500 39.887,8.063 42.343,8.399 42.708 C 8.546 42.869,8.667 43.046,8.667 43.103 C 8.667 43.225,10.563 45.411,11.164 45.982 C 12.152 46.921,13.129 47.768,13.491 48.000 C 13.705 48.137,14.076 48.418,14.315 48.622 C 15.011 49.219,15.039 49.238,16.000 49.804 C 16.504 50.101,17.029 50.413,17.167 50.496 C 18.258 51.159,19.614 51.836,20.667 52.244 C 21.354 52.511,22.018 52.806,22.142 52.899 C 22.265 52.992,22.576 53.052,22.833 53.033 C 23.342 52.994,24.166 53.331,25.833 54.262 C 28.452 55.724,29.366 55.769,30.103 54.471 C 31.105 52.707,32.354 50.394,32.607 49.833 C 32.752 49.512,32.921 49.212,32.982 49.167 C 33.044 49.121,33.336 48.596,33.631 48.000 C 35.442 44.345,36.316 43.158,36.617 43.946 C 36.681 44.113,36.802 44.325,36.886 44.417 C 37.036 44.581,38.719 47.725,39.965 50.167 C 40.315 50.854,40.906 51.942,41.279 52.583 C 41.651 53.225,42.089 54.037,42.252 54.387 C 42.649 55.237,43.177 55.569,43.937 55.446 C 44.496 55.355,46.980 54.220,47.170 53.968 C 47.346 53.735,49.096 53.003,49.480 53.002 C 49.945 53.000,49.930 53.354,49.343 56.250 C 49.157 57.167,48.925 58.404,48.827 59.000 C 48.729 59.596,48.578 60.271,48.492 60.500 C 48.407 60.729,48.260 61.479,48.168 62.167 C 48.075 62.854,47.923 63.754,47.831 64.167 C 47.738 64.579,47.545 65.592,47.402 66.417 C 47.259 67.242,47.028 68.442,46.889 69.083 C 46.298 71.808,46.500 72.579,47.726 72.271 C 48.194 72.153,48.219 72.131,49.524 70.651 C 50.041 70.064,50.641 69.392,50.857 69.158 C 51.073 68.924,51.737 68.180,52.333 67.504 C 52.929 66.827,53.802 65.856,54.272 65.345 C 54.742 64.835,55.330 64.173,55.578 63.875 C 56.072 63.283,56.624 63.167,56.770 63.625 C 56.822 63.785,56.929 64.067,57.010 64.250 C 57.090 64.433,57.345 65.333,57.577 66.250 C 58.152 68.529,58.630 68.842,60.500 68.161 C 60.729 68.078,61.517 67.898,62.250 67.761 C 62.983 67.624,64.727 67.268,66.125 66.970 C 69.261 66.301,69.389 66.347,68.858 67.933 C 68.507 68.982,68.119 70.343,67.746 71.833 C 67.620 72.337,67.395 73.237,67.246 73.831 C 67.097 74.426,66.917 74.989,66.847 75.081 C 66.555 75.465,66.153 77.934,66.316 78.342 C 66.406 78.566,66.484 78.662,66.489 78.554 C 66.495 78.446,66.621 78.236,66.769 78.088 C 68.020 76.837,70.010 71.558,70.665 67.750 C 70.850 66.680,70.852 61.007,70.669 59.917 C 70.445 58.582,70.001 56.612,69.842 56.250 C 69.762 56.067,69.573 55.504,69.423 55.000 C 69.180 54.189,68.222 52.057,68.000 51.833 C 67.954 51.787,67.736 51.412,67.516 51.000 C 66.313 48.749,60.715 43.167,59.661 43.167 C 59.582 43.167,59.188 42.945,58.787 42.674 C 58.386 42.403,57.688 42.001,57.237 41.780 C 56.786 41.560,55.782 41.069,55.007 40.690 C 54.232 40.310,53.500 40.000,53.380 40.000 C 53.260 40.000,53.032 39.927,52.873 39.838 C 52.324 39.529,50.509 38.833,50.255 38.833 C 50.115 38.833,50.000 38.766,50.000 38.685 C 50.000 38.603,49.794 38.485,49.542 38.423 C 49.290 38.361,48.783 38.172,48.417 38.004 C 48.050 37.835,47.337 37.534,46.833 37.335 C 46.329 37.135,45.617 36.838,45.250 36.675 C 44.883 36.511,44.309 36.255,43.975 36.105 C 43.640 35.956,43.293 35.833,43.204 35.833 C 43.056 35.833,42.208 35.493,40.917 34.916 C 40.642 34.793,40.192 34.639,39.917 34.573 C 39.642 34.508,39.342 34.402,39.250 34.338 C 39.158 34.275,38.483 34.015,37.750 33.761 C 37.017 33.507,36.180 33.194,35.891 33.066 C 35.603 32.938,35.318 32.833,35.260 32.833 C 35.162 32.833,33.967 32.300,32.231 31.482 C 30.296 30.570,28.796 29.189,28.511 28.056 C 27.775 25.135,29.460 22.527,32.526 21.842 C 33.016 21.732,33.567 21.579,33.750 21.501 C 34.962 20.986,43.117 21.477,44.750 22.163 C 44.933 22.240,45.758 22.502,46.583 22.745 C 47.408 22.988,48.346 23.303,48.667 23.444 C 50.041 24.050,53.244 25.704,53.628 26.005 C 53.857 26.186,54.141 26.333,54.259 26.333 C 54.376 26.333,54.497 26.390,54.528 26.458 C 54.651 26.736,55.960 27.500,56.313 27.500 C 56.746 27.500,56.833 27.420,57.777 26.152 C 58.159 25.639,58.571 25.114,58.694 24.985 C 58.816 24.856,59.136 24.450,59.404 24.083 C 59.672 23.717,60.009 23.286,60.154 23.127 C 60.298 22.968,60.536 22.705,60.681 22.544 C 60.826 22.382,61.276 21.800,61.681 21.250 C 62.086 20.700,62.496 20.175,62.593 20.083 C 62.690 19.992,63.303 19.242,63.955 18.417 C 64.606 17.592,65.856 16.017,66.732 14.917 C 68.716 12.426,68.718 12.531,66.667 10.851 C 66.438 10.664,66.137 10.410,66.000 10.288 C 64.308 8.784,60.977 6.677,57.518 4.922 C 56.751 4.533,56.532 4.437,54.500 3.593 C 53.904 3.346,53.267 3.076,53.083 2.995 C 52.900 2.913,52.000 2.653,51.083 2.417 C 50.167 2.182,49.288 1.917,49.130 1.829 C 48.972 1.742,48.222 1.556,47.463 1.417 C 46.704 1.278,45.746 1.096,45.333 1.013 C 42.991 0.541,36.575 0.374,32.917 0.690 M291.773 32.604 C 291.715 33.031,291.667 33.632,291.667 33.940 C 291.667 34.248,291.604 34.500,291.527 34.500 C 291.449 34.500,291.301 35.194,291.197 36.042 C 291.093 36.890,290.878 38.615,290.720 39.875 L 290.433 42.167 288.143 42.167 C 286.796 42.167,285.811 42.235,285.750 42.333 C 285.690 42.430,284.776 42.500,283.573 42.500 L 281.500 42.500 281.500 47.167 L 281.500 51.833 285.667 51.833 L 289.833 51.833 289.833 57.721 C 289.833 63.247,290.027 67.035,290.330 67.417 C 290.403 67.508,290.514 67.921,290.577 68.333 C 290.878 70.290,292.800 73.235,294.906 74.966 C 295.378 75.354,298.001 76.667,298.304 76.667 C 298.467 76.667,298.671 76.736,298.758 76.820 C 298.949 77.004,300.674 77.333,301.447 77.333 C 301.751 77.333,302.000 77.408,302.000 77.500 C 302.000 77.606,303.333 77.667,305.667 77.667 C 307.683 77.667,309.333 77.608,309.333 77.536 C 309.333 77.464,310.209 77.313,311.279 77.199 C 312.349 77.085,313.306 76.929,313.404 76.852 C 313.503 76.775,313.921 76.662,314.333 76.600 C 314.746 76.539,315.519 76.361,316.052 76.204 L 317.020 75.920 316.908 75.085 C 316.846 74.626,316.739 74.175,316.669 74.083 C 316.598 73.992,316.452 73.393,316.342 72.753 C 316.233 72.113,316.083 71.513,316.009 71.420 C 315.936 71.326,315.822 70.883,315.757 70.434 C 315.692 69.985,315.573 69.497,315.492 69.351 C 315.411 69.204,315.260 68.643,315.156 68.104 L 314.968 67.124 314.121 67.224 C 313.656 67.279,313.232 67.389,313.179 67.468 C 312.747 68.114,304.833 68.128,304.833 67.483 C 304.833 67.401,304.747 67.333,304.642 67.333 C 304.244 67.333,303.065 66.178,302.666 65.397 L 302.250 64.583 302.199 58.208 L 302.148 51.833 308.908 51.833 L 315.667 51.833 315.667 47.000 L 315.667 42.167 308.919 42.167 L 302.171 42.167 302.127 37.042 L 302.083 31.917 296.981 31.873 L 291.879 31.829 291.773 32.604 M137.171 41.523 C 136.669 41.607,136.185 41.748,136.096 41.837 C 136.007 41.927,135.766 42.000,135.562 42.000 C 135.358 42.000,135.091 42.100,134.969 42.222 C 134.847 42.344,134.535 42.497,134.275 42.562 C 133.687 42.710,131.786 43.789,131.157 44.333 C 130.734 44.698,129.662 45.550,129.314 45.797 C 129.038 45.992,129.003 45.939,128.902 45.172 C 128.840 44.711,128.734 44.333,128.665 44.333 C 128.595 44.333,128.487 43.846,128.423 43.250 L 128.307 42.167 123.320 42.167 L 118.333 42.167 118.333 59.417 L 118.333 76.667 124.333 76.667 L 130.333 76.667 130.333 65.333 C 130.333 56.249,130.376 54.000,130.546 54.000 C 130.663 54.000,130.994 53.794,131.281 53.542 C 132.161 52.769,132.567 52.490,132.958 52.392 C 133.165 52.340,133.333 52.233,133.333 52.154 C 133.333 52.076,133.710 51.962,134.170 51.900 C 134.631 51.839,135.048 51.724,135.097 51.645 C 135.213 51.457,136.120 51.457,136.236 51.644 C 136.285 51.723,136.624 51.828,136.990 51.878 C 139.356 52.195,139.492 52.984,139.497 66.375 L 139.500 76.667 145.591 76.667 L 151.682 76.667 151.633 63.776 C 151.597 54.551,151.530 50.818,151.396 50.651 C 151.293 50.522,151.155 50.042,151.089 49.583 C 151.023 49.125,150.826 48.435,150.651 48.051 C 150.476 47.666,150.333 47.263,150.333 47.154 C 150.333 46.917,149.653 45.773,149.465 45.694 C 149.393 45.664,149.333 45.541,149.333 45.420 C 149.333 45.300,149.147 45.025,148.920 44.809 C 148.692 44.593,148.500 44.342,148.494 44.250 C 148.477 44.023,146.834 42.742,146.372 42.596 C 146.167 42.531,146.000 42.411,146.000 42.330 C 146.000 42.248,145.737 42.133,145.417 42.072 C 145.096 42.012,144.833 41.904,144.833 41.832 C 144.833 41.398,139.278 41.174,137.171 41.523 M175.250 41.521 C 174.608 41.600,173.933 41.737,173.750 41.823 C 173.567 41.910,173.154 42.031,172.833 42.093 C 172.512 42.155,172.175 42.261,172.083 42.330 C 171.992 42.398,171.692 42.507,171.417 42.571 C 170.950 42.679,168.184 43.968,168.000 44.163 C 167.954 44.211,167.692 44.363,167.417 44.500 C 167.142 44.637,166.857 44.843,166.783 44.958 C 166.710 45.073,166.569 45.167,166.470 45.167 C 166.371 45.167,166.012 45.410,165.673 45.708 C 165.333 46.006,164.793 46.475,164.473 46.750 C 164.153 47.025,163.672 47.550,163.405 47.917 C 163.137 48.283,162.824 48.643,162.709 48.717 C 162.594 48.790,162.500 48.959,162.500 49.092 C 162.500 49.225,162.429 49.333,162.342 49.333 C 162.170 49.333,162.024 49.579,161.191 51.277 C 160.884 51.904,160.536 52.604,160.418 52.833 C 160.301 53.063,160.149 53.587,160.082 54.000 C 160.014 54.413,159.902 54.788,159.832 54.833 C 159.262 55.207,159.257 63.945,159.827 64.333 C 159.894 64.379,160.001 64.745,160.063 65.146 C 160.291 66.600,162.209 70.355,163.039 70.968 C 163.201 71.088,163.333 71.258,163.333 71.347 C 163.333 71.669,166.100 74.167,166.457 74.167 C 166.572 74.167,166.667 74.237,166.667 74.322 C 166.667 74.408,166.816 74.525,166.999 74.583 C 167.182 74.641,167.426 74.780,167.541 74.891 C 167.739 75.083,168.851 75.646,170.195 76.235 C 170.531 76.382,171.056 76.550,171.362 76.608 C 171.667 76.666,172.004 76.782,172.112 76.866 C 172.219 76.950,172.988 77.105,173.820 77.210 C 174.652 77.315,175.333 77.461,175.333 77.534 C 175.333 77.607,176.796 77.667,178.583 77.667 C 180.639 77.667,181.833 77.605,181.833 77.500 C 181.833 77.408,182.071 77.333,182.361 77.333 C 183.068 77.333,185.041 76.991,185.250 76.832 C 185.342 76.762,185.679 76.651,186.000 76.584 C 186.526 76.474,186.868 76.342,188.583 75.590 C 188.858 75.469,189.252 75.320,189.458 75.257 C 189.665 75.195,189.833 75.089,189.833 75.022 C 189.833 74.955,190.096 74.805,190.417 74.689 C 190.737 74.573,191.000 74.408,191.000 74.323 C 191.000 74.237,191.101 74.167,191.224 74.167 C 191.347 74.167,191.584 74.017,191.750 73.833 C 191.916 73.650,192.123 73.500,192.211 73.500 C 192.442 73.500,193.160 72.785,193.164 72.551 C 193.167 72.312,192.481 71.106,192.297 71.028 C 192.225 70.997,192.167 70.902,192.167 70.816 C 192.167 70.624,191.298 69.271,191.125 69.194 C 191.056 69.164,191.000 69.071,191.000 68.988 C 191.000 68.905,190.662 68.310,190.250 67.667 C 189.838 67.023,189.500 66.422,189.500 66.332 C 189.500 66.241,189.434 66.167,189.354 66.167 C 189.273 66.167,189.114 65.941,188.999 65.665 C 188.745 65.052,188.116 64.843,187.688 65.230 C 187.525 65.379,187.303 65.500,187.195 65.500 C 187.088 65.500,187.000 65.563,187.000 65.640 C 187.000 65.717,186.700 65.879,186.333 66.000 C 185.967 66.121,185.667 66.273,185.667 66.338 C 185.667 66.403,185.329 66.551,184.917 66.667 C 184.504 66.782,184.167 66.935,184.167 67.007 C 184.167 67.079,183.848 67.191,183.458 67.256 C 183.069 67.321,182.696 67.459,182.631 67.562 C 182.466 67.822,177.534 67.823,177.369 67.563 C 177.304 67.460,177.006 67.322,176.708 67.258 C 176.410 67.193,176.167 67.089,176.167 67.027 C 176.167 66.965,175.923 66.807,175.625 66.676 C 174.442 66.156,172.333 63.452,172.333 62.456 C 172.333 62.312,172.240 62.163,172.125 62.125 C 171.849 62.033,171.825 57.048,172.099 56.869 C 172.200 56.804,172.332 56.545,172.393 56.295 C 172.733 54.908,174.317 53.051,175.871 52.220 C 176.354 51.962,176.787 51.704,176.833 51.647 C 177.308 51.064,183.833 51.097,183.833 51.683 C 183.833 51.746,184.014 51.842,184.234 51.898 C 184.454 51.953,185.155 52.299,185.792 52.666 C 186.868 53.286,187.667 53.514,187.667 53.201 C 187.667 53.055,188.040 52.539,188.625 51.876 C 188.831 51.643,189.000 51.399,189.000 51.334 C 189.000 51.270,189.131 51.063,189.292 50.874 C 189.452 50.686,189.696 50.362,189.833 50.155 C 189.971 49.948,190.215 49.641,190.375 49.473 C 190.535 49.304,190.667 49.110,190.667 49.042 C 190.667 48.973,190.836 48.717,191.042 48.474 C 191.248 48.230,191.529 47.864,191.667 47.659 C 191.804 47.454,192.073 47.091,192.263 46.852 C 192.910 46.040,192.895 45.851,192.127 45.156 C 191.736 44.803,191.364 44.511,191.300 44.507 C 191.236 44.503,190.861 44.282,190.467 44.017 C 189.734 43.522,188.247 42.803,187.500 42.582 C 187.271 42.515,187.008 42.403,186.917 42.335 C 186.825 42.266,186.450 42.156,186.083 42.090 C 185.717 42.024,185.342 41.910,185.250 41.837 C 184.689 41.390,178.001 41.178,175.250 41.521 M224.417 41.519 C 223.958 41.600,223.468 41.733,223.328 41.812 C 223.187 41.892,222.831 42.011,222.536 42.075 C 222.241 42.140,222.000 42.253,222.000 42.326 C 222.000 42.399,221.769 42.505,221.486 42.561 C 221.204 42.618,220.781 42.814,220.547 42.999 C 220.313 43.183,220.038 43.333,219.936 43.333 C 219.834 43.334,219.455 43.596,219.095 43.917 C 218.734 44.238,218.385 44.500,218.318 44.500 C 218.059 44.500,216.400 46.262,215.583 47.404 C 215.400 47.661,215.168 47.957,215.068 48.064 C 214.968 48.170,214.791 48.434,214.675 48.651 C 214.349 49.260,214.214 48.841,214.082 46.809 C 214.017 45.814,213.897 45.000,213.815 45.000 C 213.733 45.000,213.667 44.710,213.667 44.357 C 213.667 44.003,213.619 43.365,213.561 42.940 L 213.455 42.167 208.477 42.167 L 203.500 42.167 203.500 59.417 L 203.500 76.667 209.500 76.667 L 215.500 76.667 215.500 68.083 C 215.500 63.362,215.557 59.500,215.627 59.500 C 215.697 59.500,215.938 59.106,216.162 58.625 C 216.385 58.144,216.741 57.518,216.951 57.234 C 217.161 56.951,217.333 56.667,217.333 56.605 C 217.333 56.428,219.969 53.833,220.149 53.833 C 220.237 53.833,220.409 53.735,220.530 53.614 C 220.878 53.268,222.518 52.542,223.250 52.410 C 223.617 52.344,224.004 52.221,224.111 52.136 C 224.637 51.720,229.521 52.161,231.997 52.848 C 232.248 52.918,232.614 51.672,232.651 50.625 C 232.659 50.373,232.735 50.167,232.818 50.167 C 232.901 50.167,233.022 49.773,233.086 49.292 C 233.151 48.810,233.263 48.342,233.335 48.250 C 233.407 48.158,233.560 47.483,233.676 46.750 C 233.792 46.017,233.939 45.379,234.004 45.333 C 234.122 45.250,234.500 43.301,234.500 42.778 C 234.500 42.611,234.367 42.500,234.167 42.500 C 233.983 42.500,233.833 42.431,233.833 42.347 C 233.833 42.262,233.590 42.141,233.292 42.077 C 232.994 42.014,232.675 41.902,232.583 41.829 C 232.009 41.374,226.423 41.162,224.417 41.519 M255.251 41.534 C 254.701 41.622,254.176 41.754,254.084 41.828 C 253.992 41.902,253.598 42.015,253.208 42.079 C 252.819 42.143,252.500 42.258,252.500 42.335 C 252.500 42.411,252.256 42.526,251.958 42.591 C 251.408 42.710,248.989 43.922,248.835 44.156 C 248.788 44.226,248.593 44.366,248.402 44.467 C 247.891 44.735,247.089 45.438,245.848 46.704 C 244.401 48.181,244.282 48.326,243.731 49.275 C 243.473 49.719,243.203 50.108,243.131 50.139 C 243.059 50.169,243.000 50.281,243.000 50.386 C 243.000 50.492,242.820 50.955,242.600 51.414 C 241.891 52.895,241.704 53.402,241.582 54.167 C 241.516 54.579,241.377 55.022,241.273 55.151 C 241.010 55.475,241.006 63.629,241.269 63.798 C 241.370 63.863,241.509 64.292,241.576 64.750 C 241.643 65.208,241.841 65.898,242.016 66.283 C 242.190 66.667,242.333 67.098,242.333 67.241 C 242.333 67.383,242.408 67.500,242.500 67.500 C 242.592 67.500,242.667 67.601,242.667 67.725 C 242.667 69.498,248.668 75.500,250.441 75.500 C 250.565 75.500,250.667 75.561,250.667 75.636 C 250.667 75.820,252.311 76.490,253.062 76.612 C 253.394 76.666,253.667 76.768,253.667 76.838 C 253.667 76.908,254.323 77.054,255.125 77.162 C 255.927 77.271,256.714 77.429,256.873 77.513 C 257.249 77.713,263.249 77.714,263.627 77.514 C 263.786 77.431,264.554 77.274,265.333 77.166 C 266.112 77.059,266.825 76.915,266.917 76.846 C 267.008 76.778,267.530 76.626,268.075 76.508 C 268.620 76.391,269.183 76.231,269.325 76.153 C 269.708 75.943,271.028 75.390,271.458 75.259 C 271.665 75.196,271.833 75.082,271.833 75.007 C 271.833 74.931,272.035 74.819,272.280 74.757 C 273.721 74.396,274.555 73.412,273.942 72.799 C 273.818 72.675,273.625 72.295,273.512 71.954 C 273.400 71.613,273.238 71.333,273.154 71.333 C 273.069 71.333,273.000 71.232,273.000 71.109 C 273.000 70.985,272.855 70.717,272.677 70.512 C 272.499 70.307,272.306 69.920,272.247 69.653 C 272.188 69.386,272.079 69.167,272.005 69.167 C 271.930 69.167,271.826 68.993,271.773 68.781 C 271.719 68.568,271.524 68.219,271.338 68.005 C 271.152 67.791,271.000 67.515,271.000 67.391 C 271.000 67.268,270.925 67.167,270.833 67.167 C 270.742 67.167,270.666 67.073,270.664 66.958 C 270.657 66.402,270.419 66.334,269.450 66.609 C 268.928 66.758,268.500 66.938,268.500 67.009 C 268.500 67.079,268.200 67.188,267.833 67.250 C 267.467 67.312,267.167 67.424,267.167 67.500 C 267.167 67.575,266.623 67.730,265.958 67.844 C 265.294 67.957,264.679 68.114,264.592 68.192 C 264.378 68.383,259.571 68.373,259.206 68.181 C 259.047 68.097,258.490 67.943,257.969 67.838 C 257.448 67.733,256.998 67.596,256.969 67.532 C 256.940 67.469,256.617 67.267,256.250 67.083 C 255.491 66.704,254.064 65.300,253.899 64.770 C 253.838 64.576,253.725 64.375,253.647 64.325 C 253.569 64.275,253.457 63.993,253.398 63.700 L 253.292 63.167 264.219 63.167 C 272.175 63.167,275.179 63.115,275.264 62.978 C 275.696 62.278,275.462 53.164,274.997 52.583 C 274.923 52.492,274.811 52.135,274.746 51.792 C 274.682 51.448,274.577 51.167,274.513 51.167 C 274.449 51.167,274.301 50.796,274.185 50.343 C 274.069 49.890,273.924 49.496,273.862 49.468 C 273.800 49.440,273.619 49.154,273.459 48.833 C 273.155 48.223,272.809 47.642,272.666 47.500 C 272.619 47.454,272.323 47.079,272.008 46.667 C 271.693 46.254,271.036 45.579,270.549 45.167 C 270.062 44.754,269.535 44.285,269.378 44.125 C 269.221 43.965,269.003 43.833,268.894 43.833 C 268.784 43.833,268.669 43.774,268.639 43.702 C 268.608 43.630,268.058 43.324,267.417 43.021 C 266.775 42.719,266.135 42.412,265.995 42.340 C 265.854 42.268,265.479 42.153,265.161 42.085 C 264.843 42.017,264.508 41.902,264.417 41.829 C 263.855 41.380,257.487 41.175,255.251 41.534 M381.338 41.532 C 380.653 41.618,380.015 41.751,379.921 41.828 C 379.827 41.906,379.394 42.022,378.958 42.087 C 378.523 42.151,378.167 42.259,378.167 42.326 C 378.167 42.392,377.754 42.546,377.250 42.667 C 376.746 42.788,376.333 42.950,376.333 43.027 C 376.333 43.104,376.241 43.167,376.127 43.167 C 375.908 43.167,374.141 44.010,374.000 44.182 C 373.954 44.238,373.729 44.381,373.500 44.501 C 371.661 45.459,368.563 48.582,367.809 50.237 C 367.701 50.473,367.550 50.667,367.473 50.667 C 367.396 50.667,367.333 50.739,367.333 50.828 C 367.333 50.917,367.142 51.424,366.907 51.953 C 366.673 52.483,366.417 53.067,366.338 53.250 C 366.127 53.740,365.833 55.085,365.833 55.560 C 365.833 55.787,365.740 56.003,365.625 56.042 C 365.356 56.131,365.322 62.947,365.590 63.131 C 365.685 63.196,365.856 63.812,365.971 64.498 C 366.085 65.184,366.251 65.818,366.340 65.906 C 366.428 65.994,366.500 66.169,366.500 66.294 C 366.500 66.419,366.688 66.931,366.917 67.432 C 367.146 67.933,367.333 68.416,367.333 68.505 C 367.333 68.594,367.408 68.667,367.500 68.667 C 367.592 68.667,367.667 68.743,367.667 68.837 C 367.667 69.593,371.799 74.167,372.482 74.167 C 372.583 74.167,372.667 74.223,372.667 74.292 C 372.667 74.360,373.173 74.679,373.792 75.000 C 374.411 75.321,374.941 75.637,374.970 75.703 C 375.000 75.769,375.281 75.871,375.595 75.930 C 375.910 75.989,376.167 76.098,376.167 76.173 C 376.167 76.248,376.598 76.404,377.125 76.519 C 377.652 76.635,378.125 76.790,378.176 76.864 C 378.227 76.938,378.902 77.080,379.676 77.179 C 380.450 77.277,381.214 77.428,381.373 77.512 C 381.726 77.700,388.000 77.721,388.000 77.534 C 388.000 77.461,388.681 77.315,389.513 77.210 C 390.346 77.105,391.114 76.949,391.222 76.864 C 391.329 76.780,391.707 76.658,392.062 76.594 C 392.418 76.530,393.243 76.229,393.896 75.926 C 394.549 75.622,395.271 75.317,395.500 75.248 C 395.729 75.179,395.954 75.072,396.000 75.011 C 396.046 74.950,396.458 74.686,396.917 74.424 C 397.375 74.161,397.810 73.846,397.883 73.723 C 397.957 73.600,398.107 73.499,398.217 73.497 C 398.676 73.491,399.198 72.691,399.084 72.170 C 399.023 71.893,398.918 71.667,398.851 71.667 C 398.784 71.667,398.599 71.423,398.441 71.125 C 398.099 70.482,397.906 70.164,397.250 69.167 C 396.594 68.169,396.401 67.852,396.059 67.208 C 395.901 66.910,395.710 66.667,395.636 66.667 C 395.561 66.667,395.500 66.595,395.500 66.508 C 395.500 66.421,395.270 66.009,394.989 65.593 L 394.478 64.836 393.781 65.210 C 393.398 65.415,393.047 65.627,393.000 65.681 C 392.921 65.773,392.021 66.206,390.301 66.981 C 389.870 67.175,389.333 67.333,389.106 67.333 C 388.880 67.333,388.663 67.427,388.625 67.542 C 388.573 67.696,387.896 67.750,386.000 67.750 C 384.104 67.750,383.427 67.696,383.375 67.542 C 383.337 67.427,383.194 67.333,383.057 67.333 C 382.287 67.333,379.333 64.999,379.333 64.390 C 379.333 64.267,379.277 64.167,379.207 64.167 C 379.004 64.167,378.303 62.510,378.209 61.806 C 378.161 61.450,378.057 61.118,377.978 61.069 C 377.789 60.953,377.789 57.880,377.978 57.764 C 378.057 57.715,378.165 57.408,378.218 57.082 C 378.304 56.555,378.828 55.357,379.386 54.417 C 379.599 54.057,380.971 52.667,381.112 52.667 C 381.160 52.667,381.402 52.522,381.651 52.344 C 381.900 52.167,382.305 51.972,382.552 51.910 C 382.798 51.848,383.000 51.743,383.000 51.677 C 383.000 51.480,385.037 51.167,386.320 51.167 C 387.710 51.167,389.833 51.484,389.833 51.691 C 389.833 51.769,389.915 51.833,390.015 51.833 C 390.294 51.833,392.283 52.784,392.400 52.973 C 392.781 53.589,394.332 53.042,394.333 52.292 C 394.333 52.223,394.465 52.029,394.625 51.861 C 394.785 51.693,395.029 51.382,395.167 51.171 C 395.304 50.960,395.585 50.580,395.792 50.328 C 395.998 50.075,396.167 49.823,396.167 49.768 C 396.167 49.712,396.284 49.535,396.427 49.375 C 397.112 48.607,398.667 46.432,398.667 46.242 C 398.667 46.124,398.750 46.000,398.851 45.966 C 399.158 45.864,396.595 43.833,396.159 43.833 C 396.072 43.833,396.000 43.770,396.000 43.693 C 396.000 43.616,395.700 43.454,395.333 43.333 C 394.967 43.212,394.667 43.060,394.667 42.995 C 394.667 42.930,394.310 42.780,393.875 42.662 C 393.440 42.545,393.008 42.392,392.917 42.322 C 392.825 42.253,392.450 42.143,392.083 42.077 C 391.717 42.011,391.339 41.896,391.245 41.821 C 390.681 41.378,384.103 41.186,381.338 41.532 M74.400 42.708 C 74.459 43.006,74.581 43.275,74.670 43.306 C 74.760 43.336,74.833 43.479,74.833 43.623 C 74.833 43.767,75.015 44.269,75.238 44.739 C 75.460 45.209,75.693 45.798,75.756 46.047 C 75.818 46.296,75.936 46.500,76.018 46.500 C 76.100 46.500,76.167 46.579,76.167 46.676 C 76.167 46.773,76.317 47.185,76.500 47.592 C 76.683 48.000,76.978 48.655,77.154 49.047 C 77.331 49.440,77.527 49.965,77.589 50.214 C 77.652 50.463,77.761 50.667,77.833 50.667 C 77.904 50.667,78.012 50.929,78.072 51.250 C 78.133 51.571,78.244 51.833,78.319 51.833 C 78.395 51.833,78.551 52.171,78.667 52.583 C 78.782 52.996,78.934 53.333,79.004 53.333 C 79.073 53.333,79.182 53.537,79.244 53.786 C 79.383 54.339,79.999 55.719,80.159 55.833 C 80.222 55.879,80.373 56.273,80.492 56.708 C 80.612 57.144,80.769 57.500,80.842 57.500 C 80.914 57.500,81.025 57.744,81.088 58.042 C 81.151 58.340,81.345 58.817,81.518 59.103 C 81.691 59.389,81.833 59.745,81.833 59.895 C 81.833 60.044,81.896 60.167,81.974 60.167 C 82.051 60.167,82.209 60.485,82.324 60.875 C 82.440 61.265,82.592 61.658,82.662 61.750 C 82.732 61.842,82.880 62.198,82.991 62.542 C 83.102 62.885,83.253 63.167,83.328 63.167 C 83.402 63.167,83.512 63.429,83.572 63.750 C 83.633 64.071,83.745 64.333,83.823 64.333 C 83.900 64.333,84.015 64.537,84.077 64.786 C 84.140 65.035,84.327 65.541,84.493 65.911 C 84.659 66.281,84.954 66.935,85.148 67.366 C 85.341 67.796,85.500 68.227,85.500 68.324 C 85.500 68.421,85.575 68.500,85.667 68.500 C 85.758 68.500,85.833 68.626,85.833 68.781 C 85.833 68.935,85.975 69.366,86.148 69.739 C 87.104 71.798,87.333 72.329,87.333 72.490 C 87.333 72.587,87.408 72.667,87.500 72.667 C 87.592 72.667,87.667 72.777,87.667 72.912 C 87.667 73.047,87.861 73.582,88.099 74.102 C 88.525 75.034,88.569 76.500,88.170 76.500 C 88.091 76.500,87.976 76.730,87.914 77.011 C 87.852 77.292,87.696 77.563,87.568 77.612 C 87.439 77.662,87.333 77.794,87.333 77.906 C 87.333 78.129,85.973 79.167,85.681 79.167 C 85.581 79.167,85.500 79.237,85.500 79.323 C 85.500 79.409,85.162 79.530,84.750 79.592 C 84.337 79.654,84.000 79.771,84.000 79.852 C 84.000 79.934,83.212 80.000,82.250 80.000 C 81.194 80.000,80.500 79.934,80.500 79.833 C 80.500 79.742,80.200 79.667,79.833 79.667 C 79.183 79.667,79.167 79.681,79.167 80.250 C 79.167 80.571,79.104 80.833,79.027 80.833 C 78.950 80.833,78.787 81.490,78.664 82.292 C 78.541 83.094,78.393 83.787,78.335 83.833 C 78.277 83.879,78.145 84.329,78.043 84.833 C 77.941 85.337,77.742 86.237,77.601 86.833 C 77.216 88.462,77.245 89.000,77.717 89.000 C 77.927 89.000,78.194 89.094,78.308 89.208 C 78.577 89.477,87.280 89.512,87.464 89.244 C 87.530 89.150,88.071 88.975,88.667 88.856 C 89.263 88.737,89.775 88.570,89.806 88.486 C 89.836 88.402,89.976 88.333,90.116 88.333 C 90.343 88.333,91.816 87.615,92.250 87.293 C 92.847 86.849,93.824 85.997,94.305 85.500 C 94.615 85.179,95.086 84.692,95.351 84.417 C 95.617 84.142,95.834 83.821,95.833 83.703 C 95.833 83.586,95.933 83.451,96.055 83.404 C 96.177 83.358,96.378 83.060,96.503 82.743 C 96.627 82.426,96.784 82.167,96.852 82.167 C 96.919 82.167,97.187 81.735,97.446 81.208 C 97.705 80.681,97.962 80.212,98.018 80.167 C 98.074 80.121,98.220 79.802,98.343 79.458 C 98.466 79.115,98.627 78.833,98.700 78.833 C 98.773 78.833,98.834 78.740,98.834 78.625 C 98.835 78.510,98.939 78.218,99.066 77.974 C 99.193 77.731,99.390 77.244,99.503 76.891 C 99.617 76.539,99.770 76.174,99.843 76.081 C 99.916 75.988,100.065 75.557,100.174 75.123 C 100.283 74.689,100.432 74.333,100.505 74.333 C 100.578 74.333,100.688 74.033,100.750 73.667 C 100.812 73.300,100.921 73.000,100.993 73.000 C 101.065 73.000,101.220 72.644,101.338 72.208 C 101.455 71.773,101.605 71.342,101.671 71.250 C 101.736 71.158,101.883 70.795,101.997 70.442 C 102.110 70.090,102.307 69.602,102.434 69.359 C 102.561 69.116,102.667 68.804,102.671 68.667 C 102.674 68.529,102.787 68.271,102.922 68.093 C 103.057 67.915,103.167 67.667,103.167 67.542 C 103.167 67.417,103.308 67.000,103.481 66.616 C 103.654 66.231,103.848 65.673,103.911 65.375 C 103.975 65.077,104.087 64.833,104.161 64.833 C 104.236 64.833,104.348 64.556,104.412 64.217 C 104.475 63.878,104.634 63.449,104.764 63.263 C 104.894 63.078,105.000 62.826,105.000 62.704 C 105.000 62.582,105.152 62.148,105.338 61.741 C 105.523 61.333,105.720 60.775,105.775 60.500 C 105.830 60.225,105.929 60.000,105.994 60.000 C 106.060 60.000,106.212 59.587,106.333 59.083 C 106.454 58.579,106.613 58.167,106.686 58.167 C 106.759 58.167,106.867 57.904,106.928 57.583 C 106.988 57.262,107.092 57.000,107.159 57.000 C 107.225 57.000,107.379 56.587,107.500 56.083 C 107.621 55.579,107.771 55.167,107.833 55.167 C 107.896 55.167,108.046 54.754,108.167 54.250 C 108.288 53.746,108.450 53.333,108.527 53.333 C 108.604 53.333,108.667 53.251,108.667 53.150 C 108.667 53.049,108.773 52.731,108.902 52.442 C 109.032 52.153,109.229 51.617,109.341 51.250 C 109.452 50.883,109.599 50.508,109.667 50.417 C 109.734 50.325,109.880 49.950,109.991 49.583 C 110.101 49.217,110.293 48.692,110.417 48.417 C 110.994 47.134,111.177 46.656,111.272 46.180 C 111.329 45.898,111.435 45.667,111.508 45.667 C 111.581 45.667,111.692 45.423,111.756 45.125 C 111.819 44.827,112.013 44.269,112.186 43.884 C 112.358 43.500,112.500 43.068,112.500 42.926 C 112.500 42.783,112.575 42.667,112.667 42.667 C 112.758 42.667,112.833 42.554,112.833 42.417 C 112.833 42.199,112.079 42.167,107.041 42.167 L 101.248 42.167 101.032 42.654 C 100.914 42.922,100.773 43.410,100.720 43.738 C 100.667 44.065,100.570 44.333,100.505 44.333 C 100.440 44.333,100.291 44.765,100.175 45.292 C 100.058 45.819,99.903 46.325,99.830 46.417 C 99.758 46.508,99.606 47.052,99.494 47.625 C 99.382 48.198,99.231 48.667,99.160 48.667 C 99.088 48.667,98.979 48.966,98.917 49.332 C 98.855 49.699,98.744 50.035,98.671 50.081 C 98.597 50.126,98.440 50.652,98.321 51.248 C 98.203 51.845,98.056 52.333,97.996 52.333 C 97.936 52.333,97.791 52.765,97.675 53.292 C 97.558 53.819,97.403 54.325,97.330 54.417 C 97.258 54.508,97.106 55.052,96.994 55.625 C 96.882 56.198,96.733 56.667,96.664 56.667 C 96.595 56.667,96.487 57.002,96.426 57.413 C 96.364 57.823,96.252 58.197,96.176 58.244 C 96.101 58.291,95.946 58.818,95.834 59.415 C 95.721 60.012,95.573 60.500,95.505 60.500 C 95.436 60.500,95.284 61.063,95.167 61.750 C 95.049 62.438,94.897 63.000,94.829 63.000 C 94.760 63.000,94.651 63.354,94.587 63.786 C 94.402 65.018,94.074 65.362,93.932 64.472 C 93.869 64.084,93.757 63.688,93.682 63.592 C 93.607 63.495,93.494 63.083,93.432 62.675 C 93.370 62.267,93.255 61.854,93.177 61.758 C 93.100 61.662,92.945 61.133,92.833 60.583 C 92.722 60.033,92.572 59.508,92.500 59.417 C 92.429 59.325,92.275 58.819,92.159 58.292 C 92.042 57.765,91.890 57.333,91.821 57.333 C 91.752 57.333,91.645 57.033,91.583 56.667 C 91.521 56.300,91.412 56.000,91.340 56.000 C 91.268 56.000,91.159 55.686,91.098 55.302 C 91.036 54.918,90.880 54.375,90.751 54.094 C 90.453 53.450,90.028 52.270,89.801 51.458 C 89.705 51.115,89.569 50.833,89.498 50.833 C 89.428 50.833,89.318 50.552,89.253 50.208 C 89.189 49.865,88.993 49.269,88.818 48.884 C 88.643 48.500,88.497 48.087,88.494 47.967 C 88.491 47.848,88.344 47.450,88.167 47.083 C 87.990 46.717,87.842 46.285,87.839 46.125 C 87.836 45.965,87.767 45.833,87.685 45.833 C 87.604 45.833,87.484 45.552,87.420 45.208 C 87.356 44.865,87.168 44.283,87.004 43.917 C 86.839 43.550,86.652 43.006,86.589 42.708 L 86.474 42.167 80.383 42.167 L 74.292 42.167 74.400 42.708 M325.000 47.000 L 325.000 51.833 331.500 51.833 L 338.000 51.833 338.000 64.250 L 338.000 76.667 344.083 76.667 L 350.167 76.667 350.167 59.417 L 350.167 42.167 337.583 42.167 L 325.000 42.167 325.000 47.000 M261.798 50.917 C 261.863 51.009,262.141 51.196,262.415 51.334 C 263.005 51.629,263.616 52.245,263.756 52.685 C 263.811 52.858,263.916 53.000,263.990 53.000 C 264.063 53.000,264.214 53.356,264.324 53.792 C 264.435 54.227,264.595 54.715,264.681 54.875 C 264.827 55.150,264.510 55.167,259.082 55.167 L 253.327 55.167 253.438 54.708 C 253.813 53.159,255.503 51.520,257.500 50.770 C 257.923 50.611,261.671 50.739,261.798 50.917 M13.478 63.962 C 13.169 64.308,12.617 64.958,12.250 65.407 C 11.883 65.856,11.294 66.562,10.940 66.976 L 10.297 67.729 11.357 68.023 C 14.183 68.808,14.125 68.849,15.175 65.345 L 15.546 64.106 15.097 63.720 C 14.473 63.183,14.127 63.234,13.478 63.962 M20.022 67.363 C 20.422 67.851,20.794 68.287,20.847 68.333 C 20.901 68.379,21.644 69.204,22.499 70.167 C 24.873 72.839,25.837 73.106,25.831 71.092 C 25.828 69.869,25.699 69.552,25.109 69.321 C 23.684 68.762,21.327 67.668,21.167 67.492 C 21.121 67.441,20.681 67.192,20.188 66.938 L 19.293 66.476 20.022 67.363 M4.999 74.125 C 4.999 74.194,4.792 74.475,4.540 74.750 C 3.231 76.178,0.667 79.376,0.667 79.581 C 0.667 79.711,0.910 80.045,1.208 80.324 C 1.756 80.838,2.000 80.951,2.000 80.691 C 2.000 80.561,3.129 79.967,5.195 79.010 C 6.405 78.450,6.557 77.946,6.003 76.333 C 5.924 76.104,5.731 75.485,5.574 74.958 C 5.334 74.155,5.002 73.673,4.999 74.125 " stroke="none" fill="#04acac" fill-rule="evenodd"></path><path id="path4" d="M26.039 71.167 C 26.039 71.487,26.073 71.619,26.115 71.458 C 26.157 71.298,26.157 71.035,26.115 70.875 C 26.073 70.715,26.039 70.846,26.039 71.167 " stroke="none" fill="#5ca4a4" fill-rule="evenodd"></path><path id="path5" d="" stroke="none" fill="#45acac" fill-rule="evenodd"></path><path id="path6" d="" stroke="none" fill="#31acac" fill-rule="evenodd"></path><path id="path7" d="M49.158 71.125 L 48.583 71.750 49.208 71.176 C 49.552 70.860,49.833 70.578,49.833 70.551 C 49.833 70.423,49.692 70.543,49.158 71.125 M25.872 71.167 C 25.872 71.487,25.906 71.619,25.948 71.458 C 25.990 71.298,25.990 71.035,25.948 70.875 C 25.906 70.715,25.872 70.846,25.872 71.167 " stroke="none" fill="#18acac" fill-rule="evenodd"></path><path id="path8" d="M46.812 72.208 C 46.938 72.369,47.200 72.491,47.395 72.481 C 47.732 72.462,47.733 72.457,47.417 72.379 C 47.233 72.334,46.971 72.212,46.833 72.107 C 46.616 71.941,46.613 71.955,46.812 72.208 " stroke="none" fill="#0cacac" fill-rule="evenodd"></path></g></svg>