<svg id="svg" version="1.1" xmlns="http://www.w3.org/2000/svg" xmlns:xlink="http://www.w3.org/1999/xlink" width="400" height="77.1852666300165" viewBox="0, 0, 400,77.1852666300165"><g id="svgg"><path id="path0" d="M281.877 8.948 C 281.716 9.297,281.538 9.621,281.482 9.667 C 281.426 9.712,281.014 10.444,280.566 11.292 C 279.649 13.029,279.585 13.061,278.302 12.417 C 277.349 11.938,277.070 11.906,276.738 12.238 C 276.474 12.502,276.421 12.833,276.643 12.833 C 276.721 12.833,276.835 13.369,276.896 14.024 C 276.957 14.678,277.113 15.447,277.242 15.732 C 277.485 16.265,278.023 19.851,277.883 20.000 C 277.840 20.046,277.343 19.563,276.778 18.927 C 274.078 15.888,273.801 15.743,273.574 17.253 C 273.403 18.391,273.271 18.434,271.172 18.023 C 268.958 17.590,268.715 17.585,268.595 17.965 C 268.500 18.261,268.864 19.947,269.159 20.583 C 269.789 21.941,269.659 23.167,268.885 23.167 C 268.765 23.167,268.667 23.233,268.667 23.314 C 268.667 23.395,268.517 23.500,268.333 23.548 C 267.499 23.766,267.843 24.223,270.333 26.202 C 271.112 26.822,272.012 27.550,272.333 27.820 C 272.654 28.091,273.385 28.699,273.958 29.171 C 275.099 30.110,275.147 30.254,274.755 31.546 C 274.350 32.881,275.015 33.148,277.519 32.657 C 279.860 32.199,281.360 32.006,282.583 32.006 C 284.057 32.007,285.976 32.243,287.833 32.653 C 290.252 33.187,291.090 32.836,290.612 31.490 C 290.166 30.233,290.211 30.120,291.625 28.975 C 292.335 28.400,293.104 27.764,293.333 27.562 C 293.690 27.248,295.404 25.861,295.917 25.472 C 297.322 24.403,297.701 23.732,297.000 23.548 C 296.817 23.500,296.667 23.395,296.667 23.314 C 296.667 23.233,296.569 23.167,296.449 23.167 C 295.830 23.167,295.602 22.742,295.814 21.982 C 295.927 21.579,296.041 21.137,296.067 21.000 C 296.094 20.862,296.161 20.637,296.216 20.500 C 296.458 19.892,296.665 18.865,296.666 18.270 L 296.667 17.623 295.958 17.716 C 295.569 17.767,294.583 17.931,293.768 18.081 C 292.139 18.380,292.024 18.343,291.891 17.481 C 291.796 16.871,291.411 16.333,291.068 16.333 C 290.837 16.333,287.833 19.599,287.833 19.849 C 287.833 19.932,287.752 20.000,287.652 20.000 C 287.436 20.000,287.619 17.193,287.854 16.899 C 287.935 16.797,288.083 16.085,288.183 15.315 C 288.282 14.546,288.438 13.761,288.528 13.571 C 289.126 12.310,288.391 11.733,287.047 12.409 C 285.927 12.971,285.622 12.951,285.286 12.292 C 283.146 8.084,282.548 7.498,281.877 8.948 M101.468 20.136 C 100.669 20.620,100.550 22.253,101.272 22.821 C 101.884 23.302,103.521 23.312,103.996 22.838 C 105.550 21.283,103.388 18.972,101.468 20.136 M287.471 20.555 C 287.530 20.861,287.373 20.906,287.020 20.683 C 286.758 20.516,286.931 20.116,287.224 20.213 C 287.330 20.249,287.441 20.403,287.471 20.555 M91.105 22.042 C 91.050 22.248,91.004 22.698,91.002 23.042 C 91.001 23.385,90.925 23.667,90.833 23.667 C 90.742 23.667,90.667 23.775,90.667 23.908 C 90.667 24.086,90.411 24.163,89.708 24.200 L 88.750 24.250 88.697 24.987 C 88.601 26.341,88.712 26.500,89.753 26.500 L 90.667 26.500 90.667 28.333 C 90.667 29.444,90.732 30.167,90.833 30.167 C 90.925 30.167,91.000 30.318,91.000 30.503 C 91.000 31.620,92.500 32.239,94.962 32.139 C 97.025 32.055,96.974 32.094,96.776 30.767 C 96.614 29.685,96.313 29.287,95.939 29.661 C 95.844 29.756,95.434 29.833,95.027 29.833 C 94.007 29.833,93.845 29.567,93.839 27.875 L 93.833 26.500 95.250 26.500 L 96.667 26.500 96.667 25.333 L 96.667 24.167 95.250 24.167 L 93.833 24.167 93.833 23.117 C 93.833 21.792,93.703 21.667,92.319 21.667 C 91.305 21.667,91.197 21.700,91.105 22.042 M62.167 26.917 L 62.167 32.000 63.667 32.000 L 65.167 32.000 65.167 30.417 L 65.167 28.833 66.293 28.833 C 68.304 28.833,69.710 27.999,69.928 26.676 C 69.981 26.350,70.105 25.873,70.203 25.616 C 70.333 25.275,70.330 25.096,70.191 24.957 C 70.086 24.852,70.000 24.552,70.000 24.289 C 70.000 23.413,69.159 22.390,68.297 22.218 C 68.042 22.167,67.833 22.059,67.833 21.979 C 67.833 21.899,66.558 21.833,65.000 21.833 L 62.167 21.833 62.167 26.917 M72.589 24.411 C 72.134 24.534,71.734 24.716,71.700 24.817 C 71.666 24.918,71.528 25.000,71.392 25.000 C 71.151 25.000,71.218 25.620,71.481 25.833 C 71.537 25.879,71.717 26.205,71.880 26.558 C 72.177 27.200,72.858 27.332,73.181 26.811 C 73.369 26.506,75.050 26.446,75.417 26.730 C 75.734 26.977,75.717 26.990,75.064 26.995 C 74.112 27.002,72.595 27.306,72.528 27.503 C 72.497 27.593,72.384 27.667,72.277 27.667 C 71.086 27.667,70.617 30.479,71.635 31.519 C 72.311 32.210,74.820 32.375,75.716 31.788 C 76.101 31.535,76.167 31.529,76.167 31.746 C 76.167 31.953,76.419 32.000,77.516 32.000 L 78.866 32.000 78.808 28.972 C 78.765 26.740,78.695 25.926,78.542 25.875 C 78.427 25.837,78.333 25.713,78.333 25.601 C 78.333 24.428,75.054 23.750,72.589 24.411 M80.833 28.083 L 80.833 32.000 82.333 32.000 L 83.833 32.000 83.833 30.037 C 83.833 27.931,83.873 27.828,85.060 26.875 C 85.369 26.627,86.770 26.595,86.917 26.833 C 87.072 27.085,87.333 27.033,87.333 26.750 C 87.333 26.613,87.398 26.500,87.477 26.500 C 87.716 26.500,87.991 24.438,87.771 24.294 C 87.103 23.859,84.554 24.238,83.875 24.873 L 83.500 25.225 83.500 24.797 C 83.500 24.264,83.252 24.167,81.903 24.167 L 80.833 24.167 80.833 28.083 M98.500 25.333 L 98.500 26.500 99.917 26.500 L 101.333 26.500 101.333 29.250 L 101.333 32.000 102.833 32.000 L 104.333 32.000 104.333 28.083 L 104.333 24.167 101.417 24.167 L 98.500 24.167 98.500 25.333 M67.015 24.686 C 67.536 25.508,66.890 26.500,65.833 26.500 L 65.167 26.500 65.167 25.395 L 65.167 24.291 66.018 24.373 C 66.486 24.418,66.935 24.558,67.015 24.686 M75.833 29.015 C 75.833 29.352,75.087 29.822,74.542 29.828 C 73.898 29.834,73.820 29.500,74.375 29.112 C 74.805 28.812,75.833 28.744,75.833 29.015 M284.083 31.500 C 284.140 31.592,284.036 31.667,283.853 31.667 C 283.670 31.667,283.473 31.592,283.417 31.500 C 283.360 31.408,283.464 31.333,283.647 31.333 C 283.830 31.333,284.027 31.408,284.083 31.500 M28.699 39.458 C 28.064 40.627,26.978 42.633,26.286 43.916 C 24.628 46.990,24.830 46.938,21.197 45.229 C 18.878 44.138,18.588 44.104,18.717 44.932 C 18.772 45.290,18.868 45.977,18.930 46.458 C 18.992 46.940,19.098 47.333,19.165 47.333 C 19.232 47.333,19.336 47.765,19.394 48.292 C 19.529 49.495,20.259 53.589,20.576 54.917 C 20.707 55.467,20.865 56.306,20.927 56.782 C 21.005 57.377,21.164 57.762,21.437 58.019 C 22.641 59.150,21.409 61.254,19.988 60.494 C 19.254 60.101,15.498 55.650,15.586 55.278 C 15.683 54.867,13.736 52.667,13.276 52.667 C 12.882 52.667,12.781 52.972,13.000 53.501 C 13.395 54.454,12.347 57.148,11.473 57.425 C 10.913 57.603,8.634 56.995,8.542 56.643 C 8.497 56.471,8.300 56.300,8.105 56.263 C 7.910 56.226,7.044 56.032,6.182 55.833 C 5.319 55.634,4.213 55.429,3.723 55.379 L 2.833 55.287 2.833 55.832 C 2.833 56.409,3.159 57.692,3.342 57.833 C 3.401 57.879,3.501 58.254,3.564 58.667 C 3.798 60.200,4.179 61.259,4.554 61.424 C 4.840 61.549,5.002 61.920,5.320 63.169 C 5.892 65.422,5.849 65.523,3.915 66.439 C 3.050 66.848,2.295 67.260,2.238 67.353 C 2.180 67.446,2.009 67.480,1.858 67.428 C 1.555 67.323,1.921 67.664,2.742 68.250 C 2.999 68.433,3.405 68.737,3.646 68.925 C 4.169 69.334,5.719 70.345,6.417 70.733 C 6.692 70.885,7.142 71.152,7.417 71.326 C 8.967 72.304,13.841 74.416,15.500 74.828 C 15.912 74.930,16.400 75.083,16.583 75.167 C 17.202 75.453,18.907 75.868,20.583 76.143 C 21.500 76.294,22.325 76.466,22.417 76.526 C 23.169 77.017,33.460 77.127,35.333 76.664 C 35.746 76.562,36.833 76.341,37.750 76.172 C 39.567 75.837,41.320 75.379,41.583 75.171 C 41.675 75.098,42.012 74.984,42.333 74.917 C 42.654 74.850,43.554 74.496,44.333 74.130 C 45.112 73.764,45.900 73.398,46.083 73.316 C 46.267 73.234,46.564 73.074,46.744 72.959 C 46.925 72.844,47.600 72.417,48.244 72.010 C 51.290 70.087,55.255 66.054,54.583 65.562 C 54.106 65.213,54.194 64.648,55.407 60.255 C 56.014 58.058,56.489 56.179,56.464 56.080 C 56.433 55.962,55.074 56.181,52.586 56.703 C 47.652 57.740,47.817 57.794,47.004 54.875 C 46.526 53.162,46.711 53.107,44.478 55.625 C 40.063 60.602,39.997 60.667,39.282 60.667 C 38.354 60.667,37.841 59.840,38.064 58.708 C 38.114 58.456,38.499 56.413,38.920 54.167 C 39.341 51.921,39.906 48.942,40.176 47.546 C 40.446 46.151,40.667 44.935,40.667 44.845 C 40.667 44.755,39.812 45.130,38.768 45.678 C 35.459 47.416,35.555 47.476,32.496 41.755 C 31.196 39.323,30.070 37.333,29.994 37.333 C 29.917 37.333,29.334 38.290,28.699 39.458 M334.000 66.250 L 334.000 67.667 332.834 67.667 C 330.649 67.667,329.564 69.447,330.104 72.147 C 330.398 73.616,333.107 74.702,334.071 73.738 C 334.310 73.500,334.333 73.500,334.333 73.738 C 334.333 73.949,334.543 74.000,335.417 74.000 L 336.500 74.000 336.500 69.417 L 336.500 64.833 335.250 64.833 L 334.000 64.833 334.000 66.250 M386.333 66.250 L 386.333 67.667 385.172 67.667 C 383.980 67.667,382.833 68.281,382.833 68.920 C 382.833 69.040,382.740 69.170,382.625 69.208 C 382.304 69.315,382.340 72.331,382.667 72.729 C 383.731 74.024,385.612 74.531,386.405 73.738 C 386.643 73.500,386.667 73.500,386.667 73.738 C 386.667 73.949,386.876 74.000,387.750 74.000 L 388.833 74.000 388.833 69.417 L 388.833 64.833 387.583 64.833 L 386.333 64.833 386.333 66.250 M354.895 65.838 C 353.814 66.171,352.671 67.735,352.668 68.886 C 352.667 69.052,352.584 69.343,352.483 69.532 C 352.355 69.770,352.351 69.983,352.470 70.229 C 352.563 70.424,352.681 70.875,352.730 71.231 C 352.839 72.014,353.510 73.030,354.130 73.349 C 354.379 73.478,354.637 73.658,354.702 73.750 C 354.973 74.130,357.598 74.058,358.420 73.647 C 359.677 73.020,359.733 72.595,358.691 71.603 L 358.186 71.123 357.583 71.478 C 356.519 72.106,355.887 71.836,355.306 70.506 C 354.974 69.744,354.974 69.745,355.517 68.603 C 355.866 67.872,357.667 67.512,357.667 68.174 C 357.667 68.699,358.860 67.846,359.341 66.976 C 359.817 66.116,356.635 65.302,354.895 65.838 M337.667 70.072 C 337.667 73.530,337.925 74.000,339.828 74.000 C 340.626 74.000,341.052 73.924,341.226 73.750 C 341.364 73.612,341.557 73.500,341.655 73.500 C 341.753 73.500,341.833 73.612,341.833 73.750 C 341.833 73.947,342.065 74.000,342.917 74.000 L 344.000 74.000 344.000 70.833 L 344.000 67.667 342.667 67.667 L 341.333 67.667 341.333 69.550 C 341.333 71.493,341.229 71.833,340.633 71.833 C 340.444 71.833,340.333 71.710,340.333 71.500 C 340.333 71.317,340.258 71.167,340.167 71.167 C 340.066 71.167,340.000 70.472,340.000 69.417 L 340.000 67.667 338.833 67.667 L 337.667 67.667 337.667 70.072 M361.250 67.869 C 360.565 68.110,360.333 68.318,360.333 68.694 C 360.333 69.096,360.990 70.000,361.281 70.000 C 361.402 70.000,361.500 70.075,361.500 70.167 C 361.500 70.258,361.398 70.333,361.274 70.333 C 360.134 70.333,359.705 72.736,360.699 73.559 C 361.327 74.080,362.903 74.179,363.727 73.749 C 364.317 73.442,364.333 73.442,364.333 73.750 C 364.333 73.947,364.565 74.000,365.417 74.000 L 366.500 74.000 366.500 71.583 C 366.500 70.083,366.437 69.167,366.333 69.167 C 366.242 69.167,366.164 69.073,366.161 68.958 C 366.133 67.890,363.101 67.218,361.250 67.869 M367.500 70.833 L 367.500 74.000 368.833 74.000 L 370.167 74.000 370.167 72.013 L 370.167 70.026 370.687 69.912 C 371.420 69.751,371.494 69.956,371.497 72.125 L 371.500 74.000 372.851 74.000 L 374.203 74.000 374.139 71.542 C 374.072 69.005,373.941 68.498,373.188 67.875 C 372.841 67.587,370.863 67.610,370.292 67.908 C 369.893 68.116,369.833 68.116,369.833 67.907 C 369.833 67.721,369.571 67.667,368.667 67.667 L 367.500 67.667 367.500 70.833 M376.250 67.862 C 375.562 68.114,375.333 68.320,375.333 68.689 C 375.333 69.539,375.879 70.012,376.750 69.917 C 377.193 69.869,377.277 69.885,377.000 69.964 C 374.122 70.787,374.292 74.002,377.214 73.999 C 377.788 73.998,378.455 73.891,378.708 73.759 C 379.107 73.551,379.167 73.551,379.167 73.760 C 379.167 73.946,379.429 74.000,380.333 74.000 L 381.500 74.000 381.500 71.769 C 381.500 69.374,381.413 69.035,380.590 68.211 C 380.073 67.693,377.315 67.471,376.250 67.862 M391.328 67.816 C 390.705 68.016,390.167 68.386,390.167 68.614 C 390.167 68.971,390.859 70.000,391.100 70.000 C 391.228 70.000,391.333 70.075,391.333 70.167 C 391.333 70.258,391.239 70.333,391.123 70.333 C 390.043 70.333,389.557 72.630,390.458 73.475 C 391.053 74.032,392.813 74.192,393.641 73.763 C 394.105 73.524,394.167 73.521,394.167 73.746 C 394.167 73.948,394.391 74.000,395.262 74.000 L 396.357 74.000 396.303 71.445 L 396.250 68.890 395.680 68.320 C 395.081 67.721,392.540 67.427,391.328 67.816 M363.417 69.667 C 363.475 69.761,363.335 69.833,363.093 69.833 C 362.859 69.833,362.667 69.758,362.667 69.667 C 362.667 69.575,362.812 69.500,362.990 69.500 C 363.168 69.500,363.360 69.575,363.417 69.667 M378.333 69.667 C 378.333 69.758,378.141 69.833,377.907 69.833 C 377.665 69.833,377.525 69.761,377.583 69.667 C 377.640 69.575,377.832 69.500,378.010 69.500 C 378.188 69.500,378.333 69.575,378.333 69.667 M393.333 69.667 C 393.333 69.758,393.141 69.833,392.907 69.833 C 392.665 69.833,392.525 69.761,392.583 69.667 C 392.640 69.575,392.832 69.500,393.010 69.500 C 393.188 69.500,393.333 69.575,393.333 69.667 M334.000 70.833 L 334.000 71.833 333.424 71.833 C 332.898 71.833,332.839 71.783,332.739 71.251 C 332.551 70.247,332.750 69.833,333.420 69.833 L 334.000 69.833 334.000 70.833 M386.333 70.833 C 386.333 71.923,385.617 72.342,385.173 71.511 C 384.724 70.673,385.022 69.833,385.768 69.833 L 386.333 69.833 386.333 70.833 M364.000 71.504 C 364.000 71.701,363.294 72.000,362.828 72.000 C 362.297 72.000,362.639 71.526,363.223 71.453 C 363.513 71.416,363.806 71.375,363.875 71.360 C 363.944 71.345,364.000 71.410,364.000 71.504 M379.000 71.504 C 379.000 71.701,378.294 72.000,377.828 72.000 C 377.346 72.000,377.611 71.532,378.139 71.451 C 378.943 71.328,379.000 71.332,379.000 71.504 M394.000 71.504 C 394.000 71.719,393.278 72.000,392.727 72.000 C 391.886 72.000,392.766 71.468,393.792 71.356 C 393.906 71.344,394.000 71.410,394.000 71.504 " stroke="none" fill="#fb0404" fill-rule="evenodd"></path><path id="path1" d="M286.911 20.343 C 286.845 20.450,286.894 20.603,287.020 20.683 C 287.373 20.906,287.530 20.861,287.471 20.555 C 287.403 20.210,287.071 20.084,286.911 20.343 M283.417 31.500 C 283.473 31.592,283.670 31.667,283.853 31.667 C 284.036 31.667,284.140 31.592,284.083 31.500 C 284.027 31.408,283.830 31.333,283.647 31.333 C 283.464 31.333,283.360 31.408,283.417 31.500 M29.105 38.208 C 28.695 38.965,27.575 41.046,26.617 42.833 C 25.462 44.986,24.741 46.153,24.479 46.289 C 24.084 46.495,24.084 46.495,24.454 46.498 C 24.915 46.501,24.842 46.616,27.548 41.591 C 28.779 39.304,29.863 37.407,29.956 37.376 C 30.049 37.345,31.191 39.312,32.493 41.748 C 35.555 47.477,35.459 47.417,38.768 45.678 C 39.812 45.130,40.667 44.755,40.667 44.845 C 40.667 44.935,40.446 46.151,40.176 47.546 C 39.906 48.942,39.341 51.921,38.920 54.167 C 38.499 56.413,38.114 58.456,38.064 58.708 C 37.841 59.840,38.354 60.667,39.282 60.667 C 39.997 60.667,40.063 60.602,44.478 55.625 C 46.711 53.107,46.526 53.162,47.004 54.875 C 47.817 57.794,47.652 57.740,52.586 56.703 C 55.074 56.181,56.433 55.962,56.464 56.080 C 56.489 56.179,56.014 58.058,55.407 60.255 C 54.800 62.452,54.295 64.499,54.285 64.803 C 54.268 65.312,54.614 65.788,54.829 65.551 C 54.877 65.498,54.823 65.421,54.708 65.380 C 54.339 65.248,54.478 64.496,55.679 60.110 C 56.328 57.742,56.815 55.760,56.762 55.706 C 56.708 55.653,55.559 55.844,54.207 56.131 C 47.476 57.560,47.966 57.671,47.154 54.542 C 46.699 52.791,46.732 52.782,44.569 55.203 C 41.196 58.979,40.798 59.415,40.234 59.958 C 39.237 60.919,38.333 60.569,38.333 59.221 C 38.333 58.806,38.896 55.491,39.583 51.855 C 40.828 45.273,40.946 44.499,40.708 44.501 C 40.640 44.502,39.699 44.952,38.618 45.501 C 35.704 46.983,35.472 46.909,33.928 44.000 C 30.978 38.442,30.091 36.833,29.978 36.833 C 29.908 36.833,29.515 37.452,29.105 38.208 M12.672 55.012 C 12.231 56.597,11.828 57.167,11.146 57.167 C 10.463 57.167,8.952 56.823,8.681 56.606 C 8.497 56.458,8.463 56.471,8.527 56.667 C 8.605 56.907,10.326 57.449,11.122 57.484 C 11.946 57.520,13.449 54.763,13.129 53.803 C 13.093 53.695,12.887 54.239,12.672 55.012 M15.593 55.318 C 15.446 55.555,15.454 55.566,17.722 58.127 C 19.787 60.458,20.038 60.667,20.778 60.667 C 21.867 60.667,22.290 58.803,21.385 57.987 L 20.937 57.583 21.302 58.064 C 22.315 59.400,21.205 61.150,19.963 60.173 C 19.288 59.642,16.099 56.014,15.899 55.549 C 15.778 55.268,15.673 55.188,15.593 55.318 M4.529 61.625 C 4.882 62.040,5.544 64.634,5.422 65.121 C 5.341 65.443,4.951 65.703,3.576 66.352 C 2.618 66.804,1.833 67.247,1.833 67.337 C 1.833 67.546,2.117 67.549,2.245 67.342 C 2.299 67.255,3.050 66.848,3.915 66.439 C 5.218 65.821,5.506 65.615,5.602 65.234 C 5.732 64.718,5.100 61.834,4.790 61.523 C 4.484 61.217,4.258 61.305,4.529 61.625 " stroke="none" fill="#bb7a7a" fill-rule="evenodd"></path><path id="path2" d="M29.250 37.667 C 29.108 37.942,29.029 38.167,29.075 38.167 C 29.121 38.167,29.274 37.942,29.417 37.667 C 29.559 37.392,29.638 37.167,29.592 37.167 C 29.546 37.167,29.392 37.392,29.250 37.667 M40.608 44.461 C 40.714 44.528,40.835 44.771,40.877 45.000 C 40.943 45.353,40.958 45.334,40.977 44.875 C 40.995 44.461,40.931 44.334,40.708 44.336 C 40.521 44.338,40.485 44.382,40.608 44.461 M38.792 45.261 C 38.356 45.488,38.000 45.710,38.000 45.756 C 38.000 45.802,38.375 45.649,38.833 45.417 C 39.292 45.184,39.667 44.958,39.667 44.914 C 39.667 44.804,39.682 44.798,38.792 45.261 M35.875 46.448 C 36.035 46.490,36.298 46.490,36.458 46.448 C 36.619 46.406,36.487 46.372,36.167 46.372 C 35.846 46.372,35.715 46.406,35.875 46.448 M45.906 53.542 L 45.417 54.083 45.917 53.646 C 46.192 53.405,46.529 53.167,46.667 53.117 C 46.882 53.039,46.881 53.024,46.656 53.013 C 46.513 53.006,46.175 53.244,45.906 53.542 M44.742 54.875 L 44.083 55.583 44.792 54.925 C 45.450 54.312,45.577 54.167,45.450 54.167 C 45.423 54.167,45.105 54.485,44.742 54.875 M15.833 55.481 C 15.833 55.573,16.002 55.825,16.208 56.041 C 16.415 56.256,16.490 56.311,16.375 56.162 C 16.260 56.013,16.167 55.807,16.167 55.705 C 16.167 55.603,16.092 55.473,16.000 55.417 C 15.908 55.360,15.833 55.389,15.833 55.481 M43.158 56.625 L 42.583 57.250 43.208 56.676 C 43.552 56.360,43.833 56.078,43.833 56.051 C 43.833 55.923,43.692 56.043,43.158 56.625 M17.583 57.667 C 17.941 58.033,18.272 58.333,18.318 58.333 C 18.363 58.333,18.108 58.033,17.750 57.667 C 17.392 57.300,17.062 57.000,17.016 57.000 C 16.970 57.000,17.225 57.300,17.583 57.667 M41.909 58.042 L 41.250 58.750 41.958 58.091 C 42.617 57.478,42.743 57.333,42.617 57.333 C 42.590 57.333,42.271 57.652,41.909 58.042 M21.545 59.167 C 21.545 59.579,21.578 59.748,21.618 59.542 C 21.657 59.335,21.657 58.998,21.618 58.792 C 21.578 58.585,21.545 58.754,21.545 59.167 M19.000 59.250 C 19.311 59.571,19.603 59.833,19.649 59.833 C 19.695 59.833,19.478 59.571,19.167 59.250 C 18.856 58.929,18.564 58.667,18.518 58.667 C 18.472 58.667,18.689 58.929,19.000 59.250 M40.324 59.792 L 39.750 60.417 40.375 59.842 C 40.957 59.308,41.077 59.167,40.949 59.167 C 40.922 59.167,40.640 59.448,40.324 59.792 " stroke="none" fill="#789c9c" fill-rule="evenodd"></path><path id="path3" d="M28.167 0.662 C 27.938 0.738,27.375 0.810,26.917 0.823 C 25.763 0.854,21.637 1.656,20.917 1.989 C 20.733 2.074,20.283 2.229,19.917 2.333 C 19.170 2.546,19.041 2.598,17.458 3.320 C 16.839 3.602,16.299 3.833,16.258 3.833 C 15.968 3.833,13.109 5.633,11.764 6.662 C 8.927 8.834,5.881 12.572,5.066 14.883 C 4.935 15.253,4.763 15.636,4.682 15.736 C 4.402 16.082,3.689 18.619,3.573 19.681 C 3.509 20.269,3.401 20.825,3.334 20.917 C 2.594 21.919,3.659 30.456,4.687 31.764 C 4.765 31.864,4.940 32.260,5.075 32.644 C 5.465 33.749,7.250 36.338,8.740 37.961 C 10.360 39.725,13.936 42.196,16.621 43.405 C 17.150 43.644,17.795 43.950,18.054 44.085 C 18.355 44.243,18.625 44.280,18.804 44.188 C 19.152 44.008,19.607 44.177,21.789 45.294 C 24.030 46.441,24.358 46.425,25.020 45.134 C 25.386 44.420,26.387 42.526,27.118 41.167 C 27.487 40.479,28.146 39.242,28.581 38.417 C 29.950 35.822,29.983 35.819,31.219 38.167 C 31.629 38.946,32.511 40.596,33.180 41.833 C 33.849 43.071,34.544 44.383,34.725 44.750 C 35.616 46.557,36.122 46.566,39.137 44.828 C 41.590 43.413,41.583 43.386,40.335 49.750 C 40.155 50.667,39.895 52.129,39.757 53.000 C 39.619 53.871,39.432 54.846,39.342 55.167 C 38.161 59.385,38.627 61.473,40.300 59.466 C 40.802 58.865,43.224 56.144,45.129 54.042 C 45.814 53.285,46.507 52.667,46.668 52.667 C 46.950 52.667,47.632 54.454,47.942 56.003 C 48.141 56.998,50.127 56.866,55.250 55.517 C 56.458 55.199,57.167 55.274,57.167 55.720 C 57.167 56.120,56.762 57.667,56.504 58.250 C 56.424 58.433,56.310 58.883,56.252 59.250 C 56.194 59.617,56.006 60.367,55.834 60.917 C 55.661 61.467,55.390 62.356,55.232 62.894 C 54.728 64.598,54.902 65.772,55.500 64.699 C 55.637 64.452,55.794 64.212,55.848 64.167 C 56.460 63.645,57.864 59.719,58.441 56.917 C 59.022 54.096,58.671 48.406,57.816 46.803 C 57.734 46.648,57.667 46.384,57.667 46.216 C 57.667 44.453,53.530 38.794,50.992 37.084 C 50.584 36.809,50.190 36.490,50.117 36.375 C 50.043 36.261,49.914 36.167,49.828 36.167 C 49.743 36.167,49.277 35.913,48.793 35.604 C 47.660 34.879,45.137 33.671,43.333 32.990 C 42.554 32.696,41.842 32.400,41.750 32.333 C 41.658 32.266,40.946 31.972,40.167 31.680 C 39.387 31.388,38.450 31.005,38.083 30.830 C 37.717 30.655,36.897 30.313,36.262 30.072 C 35.627 29.830,34.989 29.567,34.845 29.487 C 34.701 29.408,33.871 29.105,33.000 28.815 C 32.129 28.525,31.342 28.233,31.250 28.166 C 31.158 28.098,30.783 27.952,30.417 27.841 C 30.050 27.729,29.525 27.540,29.250 27.421 C 27.858 26.816,26.715 26.293,26.417 26.126 C 26.233 26.023,25.887 25.839,25.646 25.718 C 23.266 24.515,22.791 21.242,24.747 19.525 C 25.076 19.236,25.412 19.000,25.494 19.000 C 25.576 19.000,25.748 18.895,25.876 18.767 C 27.135 17.508,36.445 18.013,39.594 19.511 C 39.967 19.688,40.339 19.833,40.421 19.833 C 40.600 19.833,43.381 21.206,43.500 21.353 C 43.546 21.409,43.912 21.634,44.314 21.853 C 45.110 22.285,45.351 22.431,46.033 22.891 C 46.732 23.362,46.858 23.259,49.176 20.333 C 52.008 16.757,52.017 16.746,52.471 16.209 C 52.685 15.956,53.412 15.037,54.087 14.167 C 54.762 13.296,55.633 12.184,56.022 11.697 C 56.897 10.601,56.874 10.549,54.750 8.818 C 51.741 6.367,46.611 3.433,44.411 2.906 C 44.139 2.841,43.841 2.728,43.748 2.656 C 43.655 2.584,43.205 2.433,42.748 2.322 C 42.291 2.210,41.842 2.064,41.750 1.996 C 40.644 1.185,29.797 0.119,28.167 0.662 M217.641 17.037 C 217.242 17.516,216.804 18.035,216.667 18.192 C 216.529 18.348,216.313 18.602,216.186 18.755 C 216.059 18.909,215.534 19.533,215.019 20.142 C 214.505 20.751,213.971 21.390,213.833 21.562 C 213.696 21.734,213.467 21.996,213.326 22.145 C 213.184 22.295,212.735 22.829,212.329 23.333 C 211.922 23.837,211.389 24.475,211.143 24.750 C 208.878 27.291,208.830 26.881,211.727 29.775 C 214.297 32.343,214.405 32.404,215.139 31.708 C 215.575 31.296,216.405 30.592,217.394 29.797 C 218.950 28.546,219.930 27.741,220.000 27.656 C 220.092 27.546,221.821 26.098,223.001 25.145 C 223.413 24.812,223.946 24.362,224.185 24.145 C 224.424 23.928,224.780 23.640,224.976 23.505 C 225.598 23.078,225.404 22.810,222.032 19.453 C 218.281 15.718,218.594 15.890,217.641 17.037 M241.420 26.706 C 241.344 26.929,240.823 30.674,240.494 33.354 L 240.297 34.958 238.524 35.079 C 237.548 35.145,235.887 35.248,234.833 35.308 L 232.917 35.417 232.872 39.292 L 232.827 43.167 236.247 43.167 L 239.667 43.167 239.667 47.923 C 239.667 52.414,239.865 55.709,240.159 56.083 C 240.231 56.175,240.385 56.663,240.501 57.167 C 240.721 58.120,241.435 59.709,241.688 59.806 C 241.768 59.836,241.833 59.950,241.833 60.058 C 241.833 60.380,243.327 61.991,244.066 62.468 C 245.526 63.408,246.360 63.831,246.758 63.832 C 246.946 63.833,247.171 63.905,247.259 63.992 C 248.104 64.838,257.751 64.847,259.327 64.003 C 259.502 63.910,259.861 63.833,260.125 63.833 C 261.589 63.833,262.760 63.122,262.358 62.477 C 262.251 62.306,262.082 61.585,261.984 60.874 C 261.885 60.164,261.743 59.508,261.668 59.417 C 261.593 59.325,261.439 58.762,261.325 58.167 C 261.212 57.571,261.063 57.008,260.995 56.917 C 260.927 56.825,260.820 56.506,260.756 56.208 C 260.640 55.665,260.250 55.487,259.908 55.822 C 258.800 56.910,252.565 56.614,251.441 55.420 C 250.178 54.079,250.169 54.026,250.168 48.125 L 250.167 43.167 255.753 43.167 L 261.339 43.167 261.295 39.125 L 261.250 35.083 255.711 35.039 L 250.172 34.996 250.128 30.789 L 250.083 26.583 245.788 26.539 C 242.437 26.504,241.476 26.541,241.420 26.706 M114.417 34.441 C 113.440 34.554,112.077 34.874,111.667 35.087 C 111.438 35.206,110.837 35.506,110.333 35.753 C 109.829 36.000,109.262 36.345,109.073 36.518 C 108.883 36.691,108.643 36.833,108.539 36.833 C 108.435 36.833,108.290 36.927,108.217 37.042 C 108.066 37.277,106.992 38.060,106.940 37.973 C 106.813 37.765,106.508 36.627,106.410 36.000 C 106.249 34.972,106.400 35.005,101.875 35.003 L 97.833 35.000 97.833 49.417 L 97.833 63.833 102.917 63.833 L 108.000 63.833 108.000 54.534 L 108.000 45.234 108.505 44.826 C 108.783 44.601,109.120 44.318,109.255 44.197 C 110.937 42.683,113.974 42.900,114.833 44.595 L 115.250 45.417 115.301 54.625 L 115.351 63.833 120.517 63.833 L 125.683 63.833 125.633 53.192 C 125.597 45.552,125.530 42.485,125.394 42.317 C 125.289 42.189,125.151 41.671,125.087 41.167 C 124.983 40.357,124.287 38.560,123.989 38.333 C 123.929 38.287,123.759 38.014,123.611 37.726 C 122.367 35.296,118.618 33.957,114.417 34.441 M146.167 34.435 C 144.851 34.553,143.266 34.851,142.750 35.076 C 142.475 35.197,141.791 35.459,141.230 35.660 C 137.244 37.085,133.205 41.263,132.477 44.715 C 132.377 45.192,132.233 45.660,132.158 45.754 C 131.624 46.423,131.619 53.154,132.152 53.494 C 132.229 53.543,132.347 53.921,132.414 54.333 C 132.529 55.038,133.236 56.817,133.475 57.000 C 133.535 57.046,133.763 57.440,133.982 57.876 C 134.721 59.345,137.647 62.155,138.718 62.423 C 138.965 62.485,139.167 62.592,139.167 62.660 C 139.167 62.858,141.402 63.833,141.855 63.833 C 142.081 63.833,142.338 63.900,142.425 63.982 C 143.309 64.813,152.182 64.842,153.239 64.018 C 153.337 63.942,153.687 63.838,154.018 63.788 C 154.758 63.674,157.901 62.197,158.583 61.642 C 158.858 61.419,159.290 61.106,159.542 60.947 C 160.080 60.609,160.114 60.320,159.691 59.702 C 159.521 59.453,159.059 58.725,158.664 58.083 C 156.202 54.081,155.677 53.475,155.258 54.153 C 155.117 54.382,153.800 55.090,152.887 55.427 C 152.445 55.590,152.008 55.779,151.917 55.847 C 150.218 57.096,145.163 55.991,143.833 54.079 C 143.604 53.750,143.328 53.382,143.220 53.263 C 142.435 52.400,142.128 49.003,142.678 47.261 C 144.138 42.629,149.299 41.407,154.556 44.448 C 155.045 44.731,155.176 44.615,156.658 42.578 C 157.390 41.573,158.226 40.443,158.514 40.068 C 159.800 38.399,159.793 38.017,158.463 37.165 C 157.979 36.855,157.542 36.542,157.492 36.470 C 156.634 35.236,150.173 34.075,146.167 34.435 M186.500 34.446 C 185.073 34.591,182.297 35.652,181.333 36.421 C 180.413 37.156,178.028 39.696,177.847 40.135 C 177.489 40.997,177.394 40.777,177.191 38.625 C 177.085 37.502,176.943 36.246,176.874 35.833 L 176.750 35.083 172.500 35.083 L 168.250 35.083 168.207 49.458 L 168.165 63.833 173.332 63.833 L 178.500 63.833 178.500 56.841 C 178.500 51.617,178.553 49.731,178.708 49.383 C 179.313 48.025,180.707 46.241,182.147 44.981 C 183.753 43.576,187.246 43.091,190.636 43.802 L 192.190 44.128 192.324 43.772 C 192.398 43.577,192.514 43.079,192.581 42.667 C 192.649 42.254,192.763 41.842,192.834 41.750 C 192.905 41.658,193.211 40.383,193.515 38.917 C 193.819 37.450,194.127 36.225,194.200 36.194 C 194.644 36.009,194.253 35.510,193.348 35.103 C 191.913 34.459,189.064 34.186,186.500 34.446 M212.333 34.432 C 211.140 34.573,209.735 34.869,209.250 35.082 C 208.975 35.202,208.306 35.498,207.763 35.738 C 206.507 36.293,204.739 37.460,204.051 38.187 C 203.758 38.497,203.400 38.848,203.256 38.968 C 202.766 39.375,201.167 41.612,201.167 41.890 C 201.167 42.042,201.097 42.167,201.013 42.167 C 200.928 42.167,200.767 42.448,200.654 42.792 C 200.542 43.135,200.349 43.571,200.226 43.760 C 200.104 43.948,199.920 44.511,199.818 45.010 C 199.716 45.509,199.569 46.217,199.490 46.583 C 199.309 47.433,199.310 51.514,199.492 52.500 C 199.835 54.360,200.019 55.088,200.226 55.407 C 200.349 55.596,200.542 56.031,200.654 56.375 C 200.767 56.719,200.928 57.000,201.013 57.000 C 201.097 57.000,201.167 57.100,201.167 57.221 C 201.167 58.226,205.441 62.500,206.445 62.500 C 206.567 62.500,206.667 62.561,206.667 62.635 C 206.667 62.839,208.905 63.833,209.365 63.833 C 209.586 63.833,209.838 63.900,209.925 63.982 C 210.791 64.797,219.652 64.844,220.894 64.040 C 220.998 63.973,221.458 63.834,221.917 63.731 C 222.732 63.548,224.501 62.851,224.667 62.647 C 224.713 62.591,224.938 62.488,225.167 62.418 C 225.853 62.209,227.000 61.483,227.000 61.259 C 227.000 60.909,226.642 60.000,226.505 60.000 C 226.433 60.000,226.332 59.784,226.279 59.520 C 226.226 59.256,226.077 58.934,225.947 58.804 C 225.817 58.674,225.307 57.796,224.814 56.853 C 223.789 54.896,223.755 54.882,221.953 55.717 C 219.513 56.848,215.326 57.054,212.937 56.160 C 211.925 55.781,210.167 54.261,210.167 53.764 C 210.167 53.619,210.092 53.500,210.000 53.500 C 209.908 53.500,209.833 53.350,209.833 53.167 C 209.833 52.837,209.944 52.833,218.723 52.833 L 227.613 52.833 227.831 52.375 C 228.141 51.723,228.264 46.719,228.002 45.417 C 227.891 44.867,227.729 44.059,227.642 43.621 C 227.034 40.572,223.910 36.815,220.969 35.596 C 220.574 35.432,220.063 35.202,219.833 35.085 C 218.877 34.597,214.304 34.199,212.333 34.432 M311.203 34.512 C 308.828 34.820,304.982 37.482,303.923 39.552 C 303.773 39.844,303.395 40.496,303.082 41.000 C 302.769 41.504,302.510 42.018,302.506 42.141 C 302.503 42.265,302.390 42.603,302.255 42.891 C 302.007 43.424,301.586 44.867,301.324 46.083 C 301.137 46.955,301.144 52.368,301.334 53.333 C 301.642 54.898,302.040 56.333,302.166 56.333 C 302.237 56.333,302.347 56.615,302.409 56.958 C 302.783 59.042,305.491 62.378,307.679 63.451 C 309.802 64.492,311.085 64.741,313.727 64.627 C 316.020 64.527,317.885 63.850,319.291 62.607 C 319.800 62.157,319.821 62.222,319.659 63.750 C 319.581 64.483,319.514 67.090,319.509 69.542 L 319.500 74.000 324.583 74.000 L 329.667 74.000 329.667 54.500 L 329.667 35.000 325.707 35.000 L 321.748 35.000 321.550 35.458 C 321.440 35.710,321.263 36.273,321.156 36.708 C 320.923 37.651,320.917 37.652,320.139 36.937 C 317.682 34.680,315.165 33.997,311.203 34.512 M382.833 34.432 C 381.263 34.617,380.197 34.911,378.642 35.586 C 377.707 35.992,376.899 36.383,376.846 36.456 C 376.793 36.528,376.308 36.887,375.769 37.252 C 374.639 38.017,372.842 39.906,372.204 41.000 C 371.963 41.412,371.715 41.787,371.653 41.833 C 371.506 41.942,370.719 43.941,370.570 44.583 C 370.506 44.858,370.394 45.161,370.320 45.256 C 369.696 46.057,369.696 53.110,370.320 53.911 C 370.394 54.006,370.505 54.308,370.567 54.583 C 370.694 55.146,371.507 57.161,371.710 57.417 C 371.783 57.508,372.060 57.921,372.327 58.334 C 373.778 60.585,377.558 63.371,379.715 63.779 C 380.009 63.835,380.389 63.952,380.560 64.039 C 382.104 64.830,390.384 64.814,391.407 64.017 C 391.504 63.942,391.866 63.836,392.212 63.783 C 392.828 63.688,394.920 62.921,395.250 62.668 C 395.342 62.598,395.592 62.487,395.807 62.421 C 396.345 62.256,397.667 61.347,397.667 61.142 C 397.667 61.050,397.368 60.463,397.002 59.837 C 396.636 59.211,396.257 58.522,396.160 58.307 C 396.063 58.093,395.800 57.617,395.577 57.250 C 395.354 56.883,395.019 56.255,394.833 55.854 C 394.437 55.001,394.038 54.979,392.453 55.721 C 389.679 57.020,383.865 57.005,382.522 55.696 C 382.365 55.542,382.029 55.267,381.776 55.083 C 381.379 54.796,380.333 53.241,380.333 52.938 C 380.333 52.880,384.343 52.833,389.244 52.833 C 399.236 52.833,398.500 52.929,398.500 51.628 C 398.500 51.319,398.579 50.988,398.676 50.891 C 399.107 50.459,398.549 43.926,398.025 43.274 C 397.941 43.169,397.816 42.821,397.748 42.500 C 396.644 37.316,389.790 33.608,382.833 34.432 M61.394 35.250 C 61.341 35.387,61.538 35.997,61.832 36.606 C 62.125 37.214,62.552 38.208,62.780 38.814 C 63.008 39.421,63.260 39.994,63.338 40.089 C 63.417 40.184,63.707 40.822,63.983 41.506 C 64.258 42.190,64.637 43.065,64.825 43.450 C 65.013 43.835,65.167 44.229,65.167 44.325 C 65.167 44.421,65.242 44.500,65.333 44.500 C 65.425 44.500,65.500 44.626,65.500 44.781 C 65.500 44.935,65.642 45.366,65.815 45.739 C 66.617 47.467,66.973 48.298,67.159 48.875 C 67.269 49.219,67.411 49.500,67.474 49.500 C 67.537 49.500,67.727 49.894,67.897 50.375 C 68.066 50.856,68.429 51.737,68.703 52.333 C 69.440 53.936,69.617 54.352,69.853 55.042 C 69.971 55.385,70.115 55.667,70.174 55.667 C 70.233 55.667,70.370 55.967,70.480 56.333 C 70.590 56.700,70.752 57.000,70.840 57.000 C 70.928 57.000,71.000 57.169,71.001 57.375 C 71.001 57.581,71.226 58.200,71.500 58.750 C 71.774 59.300,71.999 59.838,71.999 59.944 C 72.000 60.051,72.056 60.164,72.125 60.194 C 72.194 60.225,72.373 60.587,72.523 61.000 C 72.673 61.413,72.891 61.981,73.007 62.263 C 73.196 62.721,73.171 62.876,72.773 63.716 C 71.806 65.760,70.813 66.254,67.708 66.239 C 65.567 66.228,65.500 66.239,65.500 66.581 C 65.500 66.775,65.434 67.005,65.352 67.092 C 65.271 67.179,65.116 67.774,65.007 68.414 C 64.899 69.054,64.752 69.654,64.680 69.747 C 64.608 69.840,64.459 70.404,64.347 71.000 C 64.236 71.596,64.067 72.393,63.973 72.772 C 63.689 73.909,63.773 74.020,65.167 74.358 C 67.856 75.010,72.471 74.639,74.450 73.610 C 74.743 73.458,75.081 73.333,75.200 73.333 C 75.526 73.331,77.863 71.510,78.513 70.750 C 78.826 70.383,79.125 70.046,79.177 70.000 C 79.266 69.922,79.991 68.831,80.454 68.081 C 81.076 67.070,82.334 64.418,82.428 63.917 C 82.488 63.596,82.596 63.333,82.667 63.333 C 82.739 63.333,82.848 63.130,82.911 62.881 C 82.973 62.632,83.175 62.097,83.359 61.693 C 83.544 61.288,83.736 60.704,83.786 60.395 C 83.836 60.086,83.934 59.833,84.004 59.833 C 84.073 59.833,84.182 59.630,84.244 59.381 C 84.307 59.132,84.497 58.623,84.667 58.250 C 84.837 57.877,85.029 57.349,85.094 57.078 C 85.159 56.806,85.268 56.508,85.335 56.417 C 85.402 56.325,85.551 55.950,85.667 55.583 C 85.782 55.217,85.940 54.837,86.017 54.739 C 86.161 54.555,86.892 52.560,87.217 51.458 C 87.319 51.115,87.452 50.833,87.513 50.833 C 87.574 50.833,87.717 50.477,87.832 50.042 C 87.947 49.606,88.171 48.950,88.331 48.583 C 88.492 48.217,88.737 47.654,88.876 47.333 C 89.015 47.012,89.181 46.563,89.245 46.333 C 89.394 45.791,90.036 44.131,90.179 43.917 C 90.240 43.825,90.380 43.450,90.489 43.083 C 90.707 42.354,91.023 41.543,91.601 40.228 C 91.808 39.757,92.028 39.101,92.091 38.770 C 92.153 38.438,92.256 38.167,92.320 38.167 C 92.385 38.167,92.532 37.796,92.648 37.343 C 92.764 36.890,92.937 36.493,93.032 36.461 C 93.128 36.430,93.216 36.107,93.228 35.743 L 93.250 35.083 88.750 35.037 C 86.275 35.011,84.098 35.027,83.912 35.072 C 83.606 35.147,82.667 37.827,82.667 38.627 C 82.667 38.740,82.597 38.833,82.512 38.833 C 82.427 38.833,82.264 39.265,82.151 39.792 C 82.038 40.319,81.891 40.825,81.824 40.917 C 81.758 41.008,81.608 41.515,81.492 42.042 C 81.376 42.569,81.231 43.000,81.172 43.000 C 81.112 43.000,80.965 43.394,80.846 43.875 C 80.618 44.794,80.170 46.294,79.664 47.833 C 79.274 49.019,78.884 50.430,78.741 51.167 C 78.679 51.487,78.567 51.826,78.493 51.919 C 78.419 52.012,78.269 52.442,78.160 52.875 C 77.915 53.848,77.783 53.784,77.509 52.558 C 77.391 52.031,77.235 51.484,77.162 51.342 C 77.089 51.200,76.939 50.637,76.828 50.092 C 76.718 49.546,76.561 48.984,76.479 48.842 C 76.398 48.700,76.066 47.726,75.743 46.677 C 75.420 45.629,75.097 44.691,75.024 44.594 C 74.952 44.496,74.791 44.079,74.667 43.667 C 74.542 43.254,74.392 42.842,74.332 42.750 C 74.273 42.658,74.129 42.246,74.012 41.833 C 73.895 41.421,73.741 41.008,73.671 40.917 C 73.601 40.825,73.449 40.450,73.333 40.083 C 73.218 39.717,73.069 39.342,73.002 39.250 C 72.935 39.158,72.834 38.840,72.778 38.542 C 72.721 38.244,72.523 37.667,72.338 37.259 C 72.152 36.852,72.000 36.477,72.000 36.427 C 72.000 36.377,71.870 36.035,71.711 35.668 L 71.421 35.000 66.455 35.000 C 62.199 35.000,61.476 35.036,61.394 35.250 M268.946 35.110 C 268.884 35.172,268.833 37.010,268.833 39.194 L 268.833 43.167 274.250 43.167 L 279.667 43.167 279.667 53.500 L 279.667 63.833 284.834 63.833 L 290.002 63.833 289.959 49.458 L 289.917 35.083 279.487 35.040 C 273.751 35.017,269.007 35.048,268.946 35.110 M336.064 35.241 C 336.013 35.373,336.006 40.079,336.049 45.699 C 336.128 56.263,336.113 56.005,336.826 58.813 C 337.011 59.542,337.787 61.034,338.035 61.139 C 338.108 61.169,338.167 61.292,338.167 61.411 C 338.167 62.187,340.991 64.125,342.634 64.478 C 344.427 64.862,348.096 64.654,349.417 64.093 C 349.692 63.976,350.134 63.791,350.401 63.682 C 351.206 63.352,352.600 62.361,353.604 61.404 C 354.718 60.342,354.667 60.361,354.667 61.010 C 354.667 61.290,354.753 62.040,354.858 62.676 L 355.049 63.833 359.359 63.833 L 363.669 63.833 363.626 49.458 L 363.583 35.083 358.500 35.083 L 353.417 35.083 353.374 44.335 L 353.331 53.587 352.584 54.388 C 351.529 55.521,348.968 56.456,348.591 55.846 C 348.539 55.762,348.281 55.645,348.019 55.588 C 346.560 55.267,346.509 54.881,346.504 44.226 C 346.500 36.154,346.472 35.192,346.236 35.101 C 345.612 34.862,336.160 34.991,336.064 35.241 M216.968 42.758 C 217.668 43.201,218.514 44.203,218.616 44.712 C 218.668 44.966,218.775 45.214,218.855 45.263 C 219.636 45.746,218.957 45.833,214.417 45.833 C 209.944 45.833,209.833 45.825,209.833 45.500 C 209.833 45.317,209.908 45.167,210.000 45.167 C 210.092 45.167,210.167 45.068,210.167 44.947 C 210.167 43.091,215.024 41.528,216.968 42.758 M387.679 42.917 C 388.575 43.551,388.951 44.061,389.247 45.047 L 389.484 45.833 384.913 45.833 L 380.342 45.833 380.500 45.418 C 381.030 44.022,382.116 42.984,383.583 42.469 C 384.526 42.137,386.953 42.403,387.679 42.917 M317.412 43.090 C 317.899 43.154,318.499 43.381,318.867 43.641 L 319.493 44.083 319.496 49.188 L 319.500 54.293 318.868 54.945 C 317.021 56.847,313.831 56.596,312.736 54.462 C 311.901 52.836,311.323 48.436,311.811 47.426 C 311.902 47.237,312.065 46.685,312.174 46.199 C 312.649 44.069,314.415 42.654,316.250 42.931 C 316.433 42.959,316.956 43.030,317.412 43.090 M11.210 53.061 C 9.592 54.807,8.499 56.310,8.788 56.393 C 10.775 56.960,11.774 56.900,11.932 56.206 C 11.989 55.955,12.208 55.188,12.419 54.500 C 12.954 52.762,12.257 51.932,11.210 53.061 M16.602 55.976 C 16.848 56.310,17.133 56.658,17.235 56.750 C 17.337 56.842,18.011 57.592,18.734 58.417 C 20.161 60.045,20.642 60.366,21.093 59.992 C 21.631 59.545,21.193 57.500,20.560 57.500 C 20.432 57.500,19.388 57.021,18.241 56.435 L 16.154 55.369 16.602 55.976 M3.336 62.515 C 2.925 63.066,2.397 63.719,2.162 63.967 C 1.306 64.869,0.500 65.957,0.500 66.211 C 0.500 66.617,1.568 67.459,1.637 67.108 C 1.667 66.957,1.798 66.833,1.929 66.833 C 2.060 66.833,2.167 66.763,2.167 66.678 C 2.167 66.592,2.335 66.471,2.542 66.407 C 3.413 66.140,4.967 65.326,5.058 65.090 C 5.169 64.801,4.872 63.004,4.671 62.750 C 4.598 62.658,4.486 62.340,4.423 62.042 C 4.269 61.321,4.206 61.348,3.336 62.515 " stroke="none" fill="#04acac" fill-rule="evenodd"></path><path id="path4" d="" stroke="none" fill="#5fa4a4" fill-rule="evenodd"></path><path id="path5" d="" stroke="none" fill="#45acac" fill-rule="evenodd"></path><path id="path6" d="M45.324 53.958 L 44.750 54.583 45.375 54.009 C 45.719 53.693,46.000 53.412,46.000 53.384 C 46.000 53.257,45.859 53.377,45.324 53.958 " stroke="none" fill="#2cacac" fill-rule="evenodd"></path><path id="path7" d="M46.145 52.943 C 45.936 53.197,45.949 53.201,46.302 52.985 C 46.647 52.775,46.712 52.784,46.927 53.074 C 47.059 53.251,47.167 53.323,47.167 53.232 C 47.167 52.713,46.493 52.523,46.145 52.943 M42.906 56.542 L 42.417 57.083 42.958 56.594 C 43.463 56.138,43.577 56.000,43.448 56.000 C 43.419 56.000,43.175 56.244,42.906 56.542 " stroke="none" fill="#18acac" fill-rule="evenodd"></path><path id="path8" d="" stroke="none" fill="#0cacac" fill-rule="evenodd"></path></g></svg>